<svg width="322" height="321" viewBox="0 0 322 321" fill="none" xmlns="http://www.w3.org/2000/svg">
<path d="M307.623 8.95239V66.8888H224.411L221.412 9.35314L307.623 8.95239Z" fill="#E0E0E0"/>
<path d="M221.412 9.35313V66.7671H304.624V9.35313L221.412 9.35313Z" fill="white"/>
<path d="M305.025 67.1607H221.018V8.95953H305.025V67.1607ZM221.806 66.3735H304.231V9.74671H221.806V66.3735Z" fill="#E0E0E0"/>
<path d="M295.614 16.4878H230.429V59.6324H295.614V16.4878Z" fill="white"/>
<path d="M295.615 16.4878H295.292H294.369H290.791L277.359 16.5379L230.436 16.631L230.622 16.4449C230.622 29.6266 230.622 44.2323 230.622 59.5823L230.422 59.3748L295.607 59.4177L295.443 59.5823C295.479 46.4507 295.507 35.6879 295.529 28.1882C295.529 24.4455 295.564 21.5186 295.572 19.5077C295.572 18.5202 295.572 17.7616 295.572 17.2321C295.572 16.7097 295.572 16.4377 295.572 16.4377C295.572 16.4377 295.572 16.6882 295.572 17.1963C295.572 17.7044 295.572 18.4701 295.572 19.4433C295.572 21.4471 295.572 24.3596 295.615 28.088C295.615 35.6091 295.665 46.4078 295.7 59.5752V59.7398H295.536L230.35 59.7827H230.143V59.5752C230.143 44.2252 230.143 29.6194 230.143 16.4377V16.2517H230.336L277.517 16.3948L290.906 16.4449H294.448H295.35L295.615 16.4878Z" fill="#E0E0E0"/>
<path d="M221.412 9.19568C221.925 9.44316 222.406 9.75323 222.843 10.1188C223.695 10.7343 224.854 11.6073 226.107 12.6092C227.359 13.611 228.461 14.5557 229.234 15.2713C229.683 15.6237 230.084 16.0326 230.429 16.4878C228.843 15.3728 227.315 14.1785 225.849 12.9097C224.295 11.7642 222.813 10.5238 221.412 9.19568Z" fill="#E0E0E0"/>
<path d="M304.631 9.35312C303.261 10.6969 301.797 11.9428 300.252 13.0815C298.787 14.3239 297.238 15.4622 295.615 16.4878C296.984 15.1421 298.447 13.8962 299.994 12.7595C301.458 11.517 303.008 10.3788 304.631 9.35312Z" fill="#E0E0E0"/>
<path d="M304.56 66.7743L295.257 59.2531L304.56 66.7743Z" fill="white"/>
<path d="M295.285 59.2531C296.953 60.3371 298.545 61.5325 300.051 62.8312C301.642 64.0335 303.149 65.3438 304.56 66.7528C302.892 65.6688 301.3 64.4734 299.794 63.1747C298.203 61.9725 296.696 60.6622 295.285 59.2531Z" fill="#E0E0E0"/>
<path d="M221.412 66.7671C222.768 65.4343 224.217 64.2003 225.749 63.0746C227.193 61.8424 228.726 60.7183 230.336 59.7112C228.981 61.0425 227.532 62.2742 225.999 63.3966C224.554 64.6295 223.021 65.7559 221.412 66.7671Z" fill="#E0E0E0"/>
<path d="M243.661 29.9271V44.3755H284.68V29.9271H243.661Z" fill="#E0E0E0"/>
<path d="M247.232 319.452H321.012V105.303H247.232L247.232 319.452Z" fill="#3A3E47"/>
<path d="M207.629 319.452H288.408V105.303H207.629L207.629 319.452Z" fill="#F5F5F5"/>
<path d="M257.222 269.48H235.639C235.231 269.48 234.839 269.318 234.551 269.03C234.262 268.741 234.1 268.35 234.1 267.942V266.661H258.76V267.942C258.76 268.35 258.598 268.741 258.31 269.03C258.021 269.318 257.63 269.48 257.222 269.48Z" fill="#E0E0E0"/>
<path d="M211.2 266.661C211.2 266.661 211.2 266.918 211.2 267.433C211.2 267.949 211.2 268.729 211.2 269.731C211.2 271.77 211.2 274.74 211.157 278.568C211.157 286.261 211.107 297.325 211.071 310.871V311.036H211.236L283.22 311.079H283.463V310.871C283.463 295.228 283.463 280.307 283.463 266.725V266.539H283.241L231.302 266.582L216.481 266.618H212.553H211.544H211.215H211.572H212.596H216.56L231.431 266.682L283.241 266.825L283.048 266.632C283.048 280.229 283.048 295.135 283.048 310.778L283.256 310.578H283.213L211.229 310.621L211.386 310.778C211.351 297.275 211.322 286.24 211.3 278.576C211.3 274.74 211.3 271.749 211.265 269.702C211.265 268.686 211.265 267.913 211.265 267.376C211.265 266.84 211.2 266.661 211.2 266.661Z" fill="#E0E0E0"/>
<path d="M235.073 283.256H256.506V277.466H235.073V283.256Z" fill="#E0E0E0"/>
<path d="M258.202 217.956H236.626C236.218 217.956 235.827 217.794 235.538 217.505C235.25 217.217 235.088 216.825 235.088 216.417V215.136H259.741V216.417C259.741 216.825 259.578 217.217 259.29 217.505C259.001 217.794 258.61 217.956 258.202 217.956Z" fill="#E0E0E0"/>
<path d="M211.401 215.129C211.401 215.129 211.401 215.387 211.401 215.902C211.401 216.417 211.401 217.204 211.401 218.199C211.401 220.238 211.401 223.208 211.358 227.037C211.358 234.73 211.308 245.793 211.272 259.347V259.504H211.436L283.42 259.547H283.664V259.347C283.664 243.696 283.664 228.776 283.664 215.201V215.007H283.478L231.538 215.05L216.718 215.093H212.789H211.78H211.451H211.809H212.832H216.796L231.667 215.165L283.478 215.301L283.284 215.115C283.284 228.711 283.284 243.611 283.284 259.261L283.492 259.054H283.449L211.465 259.097L211.622 259.261C211.587 245.75 211.558 234.723 211.537 227.058C211.537 223.223 211.537 220.231 211.537 218.185C211.537 217.176 211.537 216.396 211.537 215.859C211.537 215.322 211.401 215.129 211.401 215.129Z" fill="#E0E0E0"/>
<path d="M236.691 231.381H258.123V225.591H236.691V231.381Z" fill="#E0E0E0"/>
<path d="M257.265 113.969H235.681C235.273 113.969 234.882 113.807 234.594 113.519C234.305 113.23 234.143 112.839 234.143 112.431V111.15H258.803V112.431C258.803 112.633 258.763 112.833 258.686 113.019C258.609 113.206 258.495 113.376 258.352 113.519C258.21 113.661 258.04 113.775 257.853 113.852C257.667 113.929 257.467 113.969 257.265 113.969Z" fill="#E0E0E0"/>
<path d="M211.236 111.143C211.236 111.143 211.236 111.4 211.236 111.915C211.236 112.431 211.236 113.218 211.236 114.213C211.236 116.252 211.236 119.222 211.2 123.05C211.2 130.743 211.15 141.807 211.114 155.361V155.518H211.272L283.263 155.568H283.506V155.361C283.506 139.71 283.506 124.789 283.506 111.214V111.021H283.241L231.309 111.064L216.481 111.107H212.553H211.551H211.215C211.334 111.113 211.453 111.113 211.572 111.107H212.596H216.567L231.431 111.171L283.241 111.307L283.048 111.121C283.048 124.718 283.048 139.617 283.048 155.268L283.256 155.06L211.265 155.103L211.429 155.268C211.393 141.757 211.365 130.729 211.343 123.065C211.343 119.229 211.308 116.238 211.3 114.191C211.3 113.182 211.3 112.402 211.3 111.865C211.3 111.329 211.236 111.143 211.236 111.143Z" fill="#E0E0E0"/>
<path d="M236.14 126.357H257.572V120.567H236.14V126.357Z" fill="#E0E0E0"/>
<path d="M257.265 165.945H235.682C235.273 165.945 234.882 165.782 234.594 165.494C234.305 165.205 234.143 164.814 234.143 164.406V163.082H258.803V164.363C258.809 164.569 258.773 164.773 258.699 164.965C258.624 165.157 258.511 165.331 258.368 165.479C258.225 165.626 258.053 165.744 257.863 165.824C257.674 165.903 257.47 165.945 257.265 165.945Z" fill="#E0E0E0"/>
<path d="M211.236 163.096C211.236 163.096 211.236 163.354 211.236 163.869C211.236 164.385 211.236 165.165 211.236 166.166C211.236 168.206 211.236 171.176 211.2 175.004C211.2 182.697 211.15 193.761 211.114 207.307V207.465H211.272L283.263 207.508H283.506V207.3C283.506 191.657 283.506 176.736 283.506 163.154V162.968H283.241L231.309 163.011H216.481H212.553H211.551H211.215H211.572H212.596H216.567L231.431 163.075L283.241 163.218L283.048 163.025C283.048 176.622 283.048 191.528 283.048 207.171L283.256 206.971L211.265 207.014L211.429 207.171C211.393 193.668 211.365 182.633 211.343 174.969C211.343 171.133 211.308 168.142 211.3 166.095C211.3 165.079 211.3 164.306 211.3 163.769C211.3 163.232 211.236 163.096 211.236 163.096Z" fill="#E0E0E0"/>
<path d="M236.14 178.318H257.572V172.528H236.14V178.318Z" fill="#E0E0E0"/>
<path d="M94.0536 7.50684H16.7025V76.7071H94.0536V7.50684Z" fill="#FAFAFA"/>
<path d="M94.0536 76.7071C94.0536 76.7071 94.0536 76.2634 94.0536 75.4189C94.0536 74.5745 94.0536 73.3293 94.0536 71.7121C94.0536 68.4631 94.0536 63.7186 94.0035 57.6645C94.0035 45.5777 93.9534 28.3241 93.9177 7.50683L94.0894 7.67858H16.7454L16.953 7.47105C16.953 32.6465 16.953 56.3334 16.953 76.6713L16.7669 76.4852L72.7139 76.5783L88.4933 76.6283H92.6725H93.7459H94.118H93.7674H92.7083H88.572L72.8284 76.6713L16.7669 76.7643H16.588V76.5854C16.588 56.2476 16.588 32.5606 16.588 7.38517V7.17764H16.8027H94.1466H94.3256V7.35655C94.2826 28.1953 94.254 45.5061 94.2325 57.6287C94.2325 63.6613 94.1967 68.363 94.1896 71.6333C94.1896 73.2363 94.1896 74.4958 94.1896 75.3116C94.1896 76.1274 94.0536 76.7071 94.0536 76.7071Z" fill="#E0E0E0"/>
<path d="M46.372 19.8012C46.372 19.9157 42.3002 20.0087 37.2765 20.0087C32.2529 20.0087 28.1882 19.9157 28.1882 19.8012C28.1882 19.6867 32.2529 19.5936 37.2765 19.5936C42.3002 19.5936 46.372 19.6867 46.372 19.8012Z" fill="#E0E0E0"/>
<path d="M79.1402 24.9822C79.1402 25.0967 67.9551 25.1897 54.1579 25.1897C40.3608 25.1897 29.1972 25.111 29.1972 24.9822C29.1972 24.8534 40.3823 24.7747 54.1794 24.7747C67.9765 24.7747 79.1402 24.882 79.1402 24.9822Z" fill="#E0E0E0"/>
<path d="M31.5659 33.7986H28.3098V37.0547H31.5659V33.7986Z" fill="#E0E0E0"/>
<path d="M39.588 33.7986H36.3319V37.0547H39.588V33.7986Z" fill="#E0E0E0"/>
<path d="M47.7603 33.6483H44.5043V36.9044H47.7603V33.6483Z" fill="#E0E0E0"/>
<path d="M55.6321 33.7986H52.3761V37.0547H55.6321V33.7986Z" fill="#E0E0E0"/>
<path d="M63.6542 33.7986H60.3981V37.0547H63.6542V33.7986Z" fill="#E0E0E0"/>
<path d="M71.6763 33.7986H68.4202V37.0547H71.6763V33.7986Z" fill="#E0E0E0"/>
<path d="M79.6983 33.7986H76.4423V37.0547H79.6983V33.7986Z" fill="#EBEBEB"/>
<path d="M31.5659 40.7258H28.3098V43.9819H31.5659V40.7258Z" fill="#EBEBEB"/>
<path d="M39.588 40.7258H36.3319V43.9819H39.588V40.7258Z" fill="#E0E0E0"/>
<path d="M47.61 40.7258H44.354V43.9819H47.61V40.7258Z" fill="#EBEBEB"/>
<path d="M55.6321 40.7258H52.3761V43.9819H55.6321V40.7258Z" fill="#E0E0E0"/>
<path d="M63.6542 40.7258H60.3981V43.9819H63.6542V40.7258Z" fill="#E0E0E0"/>
<path d="M71.8194 40.5755H68.5633V43.8316H71.8194V40.5755Z" fill="#E0E0E0"/>
<path d="M79.6983 40.7258H76.4423V43.9819H79.6983V40.7258Z" fill="#E0E0E0"/>
<path d="M31.5659 47.653H28.3098V50.909H31.5659V47.653Z" fill="#E0E0E0"/>
<path d="M39.7382 47.5027H36.4822V50.7587H39.7382V47.5027Z" fill="#E0E0E0"/>
<path d="M47.61 47.653H44.354V50.909H47.61V47.653Z" fill="#E0E0E0"/>
<path d="M55.6321 47.653H52.3761V50.909H55.6321V47.653Z" fill="#EBEBEB"/>
<path d="M63.6542 47.653H60.3981V50.909H63.6542V47.653Z" fill="#E0E0E0"/>
<path d="M71.6763 47.653H68.4202V50.909H71.6763V47.653Z" fill="#E0E0E0"/>
<path d="M79.6983 47.653H76.4423V50.909H79.6983V47.653Z" fill="#E0E0E0"/>
<path d="M31.5659 54.5802H28.3098V57.8362H31.5659V54.5802Z" fill="#E0E0E0"/>
<path d="M39.588 54.5802H36.3319V57.8362H39.588V54.5802Z" fill="#E0E0E0"/>
<path d="M47.61 54.5802H44.354V57.8362H47.61V54.5802Z" fill="#E0E0E0"/>
<path d="M55.7824 54.437H52.5263V57.6931H55.7824V54.437Z" fill="#E0E0E0"/>
<path d="M63.6542 54.5802H60.3981V57.8362H63.6542V54.5802Z" fill="#E0E0E0"/>
<path d="M71.6763 54.5802H68.4202V57.8362H71.6763V54.5802Z" fill="#EBEBEB"/>
<path d="M79.6983 54.5802H76.4423V57.8362H79.6983V54.5802Z" fill="#E0E0E0"/>
<path d="M31.5659 61.5073H28.3098V64.7634H31.5659V61.5073Z" fill="#E0E0E0"/>
<path d="M39.588 61.5073H36.3319V64.7634H39.588V61.5073Z" fill="#EBEBEB"/>
<path d="M47.61 61.5073H44.354V64.7634H47.61V61.5073Z" fill="#E0E0E0"/>
<path d="M55.6321 61.5073H52.3761V64.7634H55.6321V61.5073Z" fill="#E0E0E0"/>
<path d="M63.6542 61.5073H60.3981V64.7634H63.6542V61.5073Z" fill="#E0E0E0"/>
<path d="M71.8194 61.3642H68.5633V64.6203H71.8194V61.3642Z" fill="#E0E0E0"/>
<path d="M79.6983 61.5073H76.4423V64.7634H79.6983V61.5073Z" fill="#E0E0E0"/>
<path d="M159.073 110.542L132.398 120.585L139.168 138.567L165.843 128.524L159.073 110.542Z" fill="#EBEBEB"/>
<path d="M159.239 110.742C159.2 110.86 159.147 110.973 159.082 111.078L158.588 112.008C158.13 112.831 157.493 113.991 156.713 115.408C155.096 118.27 152.877 122.235 150.43 126.607L150.38 126.7H150.273L150.029 126.621L137.663 122.564L133.921 121.304L132.912 120.954C132.79 120.918 132.673 120.87 132.561 120.811C132.685 120.834 132.806 120.865 132.926 120.904L133.956 121.211L137.721 122.392L150.137 126.342L150.38 126.421L150.222 126.485C152.706 122.127 154.938 118.191 156.577 115.322L158.516 111.958L159.06 111.05C159.111 110.942 159.171 110.839 159.239 110.742Z" fill="#E0E0E0"/>
<path d="M139.331 138.765C139.266 138.765 140.34 135.524 141.742 131.573C143.145 127.623 144.326 124.417 144.39 124.467C144.455 124.517 143.381 127.716 141.986 131.624C140.59 135.531 139.402 138.765 139.331 138.765Z" fill="#E0E0E0"/>
<path d="M153.178 120.911C153.214 120.846 156.119 122.55 159.661 124.704C163.204 126.858 166.045 128.661 166.009 128.725C165.973 128.79 163.068 127.087 159.525 124.925C155.983 122.764 153.142 120.968 153.178 120.911Z" fill="#E0E0E0"/>
<path d="M193.618 53.7858C194.299 53.3723 195.033 53.0522 195.8 52.8341L196.251 50.6872L199.901 50.6228L200.43 52.7697C201.204 52.9586 201.948 53.2523 202.641 53.6427L204.488 52.4333L207.114 54.9666L205.969 56.8558C206.382 57.525 206.702 58.2473 206.921 59.0027L209.068 59.4464L209.132 63.1032L206.985 63.6256C206.794 64.3996 206.503 65.1454 206.119 65.844L207.329 67.6831L204.788 70.3094L202.906 69.1716C202.223 69.58 201.489 69.8975 200.724 70.1162L200.273 72.2631L196.623 72.3275L196.094 70.1806C195.321 69.9886 194.578 69.695 193.882 69.3076L192.036 70.517L189.41 67.9765L190.555 66.0945C190.14 65.4135 189.82 64.6792 189.603 63.9118L187.456 63.461L187.392 59.8113L189.538 59.2818C189.728 58.5096 190.019 57.7661 190.404 57.0705L189.195 55.2242L191.735 52.5979L193.618 53.7429V53.7858ZM195.564 58.6449C195.024 59.2021 194.661 59.907 194.522 60.6704C194.383 61.4338 194.473 62.2214 194.782 62.9334C195.09 63.6454 195.603 64.2499 196.255 64.6703C196.908 65.0907 197.67 65.3082 198.446 65.2951C199.222 65.2821 199.976 65.0392 200.614 64.5971C201.252 64.155 201.744 63.5337 202.029 62.8117C202.313 62.0897 202.377 61.2996 202.212 60.5413C202.047 59.783 201.661 59.0906 201.103 58.5518C200.735 58.1921 200.3 57.9084 199.823 57.7169C199.345 57.5254 198.834 57.4299 198.32 57.4359C197.806 57.4419 197.297 57.5492 196.825 57.7517C196.352 57.9543 195.923 58.248 195.564 58.6163V58.6449Z" fill="#E0E0E0"/>
<path d="M195.564 58.6162C195.767 58.3675 196.009 58.1526 196.28 57.9793C196.751 57.6734 197.282 57.4713 197.838 57.3863C198.393 57.3013 198.961 57.3354 199.502 57.4863C200.043 57.6372 200.546 57.9015 200.978 58.2616C201.409 58.6217 201.759 59.0695 202.005 59.5752C202.359 60.288 202.491 61.0907 202.384 61.8794C202.269 62.7291 201.888 63.5206 201.296 64.1408C200.7 64.756 199.923 65.1647 199.078 65.3073C198.68 65.3715 198.274 65.3715 197.875 65.3073C197.49 65.2592 197.113 65.153 196.759 64.9924C196.106 64.696 195.543 64.2318 195.127 63.647C194.772 63.1353 194.541 62.5469 194.455 61.9295C194.319 61.037 194.502 60.1251 194.97 59.3533C195.133 59.0837 195.339 58.8421 195.578 58.6377C195.578 58.6377 195.342 58.8953 195.042 59.432C194.621 60.1976 194.47 61.0821 194.612 61.9439C194.705 62.533 194.936 63.0919 195.285 63.5755C195.685 64.1274 196.223 64.5643 196.845 64.8421C197.179 64.9905 197.534 65.0894 197.897 65.1355C198.276 65.1961 198.663 65.1961 199.042 65.1355C199.84 64.9995 200.574 64.6136 201.139 64.0335C201.699 63.4436 202.059 62.6926 202.169 61.8866C202.259 61.1522 202.137 60.4074 201.818 59.7398C201.522 59.1244 201.067 58.5985 200.502 58.2155C200.006 57.8851 199.44 57.6766 198.849 57.6072C197.984 57.4953 197.107 57.6768 196.358 58.1225C195.814 58.4015 195.585 58.6663 195.564 58.6162Z" fill="#E0E0E0"/>
<path d="M193.618 53.7858L193.496 53.7214L193.138 53.5139L191.707 52.6695H191.75L189.231 55.3173V55.2457L190.447 57.0848C190.065 57.7778 189.779 58.5192 189.596 59.2889V59.3319H189.553L187.406 59.8686L187.463 59.7899C187.463 60.9349 187.513 62.1586 187.535 63.4395L187.47 63.3536L189.617 63.7973H189.667V63.8474C189.886 64.6017 190.203 65.3236 190.612 65.9943V66.0444V66.0945L189.496 68.0767V67.9479L192.129 70.4812H192L193.839 69.2646L193.897 69.2289L193.954 69.2646C194.643 69.6466 195.379 69.9353 196.144 70.1234H196.208V70.1878L196.73 72.3346L196.623 72.2559L200.273 72.1915L200.165 72.2774C200.309 71.5618 200.466 70.8462 200.616 70.1305V70.0661H200.681C201.436 69.8544 202.159 69.5389 202.828 69.1287H202.892H202.949L204.831 70.2737H204.695L207.229 67.6473V67.7833C206.821 67.1607 206.413 66.5453 206.019 65.937L205.983 65.8798V65.8225C206.368 65.1345 206.66 64.398 206.849 63.6327V63.5683H206.914L209.061 63.0459L208.982 63.1533C208.982 61.9081 208.96 60.6915 208.917 59.5036L209.003 59.6038L206.856 59.1458H206.799V59.0814C206.586 58.3275 206.273 57.6055 205.869 56.9345V56.8845V56.8344L207.014 54.9451V55.0596L204.395 52.5192H204.502L202.656 53.7214H202.613H202.57C201.879 53.3373 201.14 53.0461 200.373 52.8555H200.33V52.8126C200.144 52.0326 199.972 51.3313 199.808 50.6657L199.879 50.7158L196.222 50.7588H196.272C196.086 51.6175 195.936 52.326 195.807 52.9056C195.231 53.0627 194.672 53.2785 194.14 53.5497L193.746 53.75L193.61 53.8216C193.647 53.7878 193.688 53.7589 193.732 53.7357L194.118 53.5139C194.65 53.2308 195.208 53.003 195.786 52.8341C195.9 52.2473 196.043 51.5388 196.215 50.6872V50.6443H196.258L199.908 50.5656H199.965V50.6156C200.13 51.2812 200.309 51.9825 200.502 52.7625L200.445 52.7124C201.227 52.902 201.98 53.1956 202.684 53.5855H202.599L204.445 52.3761L204.502 52.3331L204.552 52.3832L207.178 54.9165L207.236 54.9666L207.193 55.031L206.055 56.9202V56.82C206.474 57.5076 206.796 58.2492 207.014 59.0242L206.942 58.9526L209.089 59.3963H209.168V59.475C209.168 60.6629 209.218 61.8795 209.239 63.1246V63.2105H209.154L207.007 63.7401L207.085 63.6614C206.893 64.4438 206.597 65.1971 206.205 65.9012V65.7724L207.422 67.6187L207.465 67.6903L207.407 67.7547L204.867 70.381L204.81 70.4454L204.731 70.4025L202.842 69.2575H202.956C202.268 69.6755 201.527 69.9981 200.752 70.2164L200.831 70.1305C200.674 70.8462 200.523 71.6119 200.38 72.2774V72.3704H200.294L196.645 72.4277H196.559V72.3418C196.373 71.6262 196.194 70.8676 196.029 70.1949L196.108 70.2737C195.326 70.0785 194.573 69.7826 193.868 69.3934H193.982L192.136 70.6028L192.065 70.6458L192.007 70.5885L189.381 68.0481L189.324 67.998L189.367 67.9264C189.768 67.2681 190.154 66.624 190.512 66.0444V66.1445C190.096 65.4538 189.776 64.7099 189.56 63.9333L189.624 63.9977L187.478 63.5469H187.406V63.4753C187.406 62.1943 187.363 60.9778 187.349 59.8256V59.7612H187.406L189.553 59.2388L189.496 59.3319C189.688 58.5518 189.984 57.8009 190.376 57.0991V57.1707C189.939 56.5052 189.538 55.8826 189.174 55.3173L191.721 52.7052L193.152 53.564L193.503 53.793C193.582 53.7501 193.618 53.7787 193.618 53.7858Z" fill="#E0E0E0"/>
<path d="M16.6739 312.174C15.3643 311.058 12.4517 307.501 14.6988 303.372C15.5217 301.862 17.275 301.11 18.8565 300.445C20.438 299.779 22.1054 299.2 23.415 298.083C25.891 295.979 26.5709 292.487 28.2096 289.682C30.0989 286.462 33.6126 284.043 37.3266 284.215C41.6203 284.408 45.1269 287.886 46.737 291.843C48.3471 295.801 48.4044 300.202 48.433 304.481C48.433 306.85 48.3471 309.49 46.6082 311.115C45.0124 312.589 42.6007 312.603 40.4324 312.546L17.182 311.83" fill="#F5F5F5"/>
<path d="M61.1352 248.255H0L11.0134 313.92C11.2396 315.289 11.8501 316.565 12.7737 317.6C13.6973 318.635 14.896 319.386 16.2302 319.767L16.4449 319.831C16.6238 319.874 16.8027 319.938 16.9888 319.967C17.3988 320.051 17.8155 320.099 18.2339 320.11V320.174L18.5345 320.124H45.7924C46.2943 320.124 46.7952 320.077 47.288 319.981C48.8826 319.733 50.3517 318.969 51.4699 317.806C52.5881 316.642 53.2936 315.144 53.4781 313.541L58.7808 268.292L59.0241 266.489L61.1281 248.598L61.1352 248.255ZM49.6066 290.133H43.3307L43.9604 271.076H51.2311L49.6066 290.133ZM51.8393 271.076H57.8219L55.582 290.133H50.2149L51.8393 271.076ZM33.9489 311.265L33.5696 294.706H42.5721L42.0211 311.265H33.9489ZM24.1449 294.706H32.9256L33.3048 311.265H25.4331L24.1449 294.706ZM24.8606 311.265H17.4682C16.7526 306.792 15.8581 300.982 14.8705 294.706H23.5367L24.8606 311.265ZM23.8301 290.133L22.3487 271.076H32.3817L32.8182 290.133H23.8301ZM33.4623 290.133L33.0258 271.076H43.3521L42.7224 290.133H33.4623ZM32.9184 266.517L32.5105 248.87H44.0964L43.5096 266.503L32.9184 266.517ZM32.3101 266.517H21.9552L20.6098 248.856H31.8736L32.3101 266.517ZM21.3254 266.503H10.4265C10.0401 264.07 9.67515 261.759 9.33881 259.683C8.20098 252.527 7.77161 249.865 7.53545 248.856H19.9729L21.3254 266.503ZM21.6832 271.076L23.1645 290.133H14.1692C13.8615 288.201 13.5538 286.247 13.2461 284.286L11.1636 271.076H21.6832ZM13.5395 290.133H7.63564L4.44398 271.076H10.5339C11.4642 276.966 12.5018 283.521 13.5395 290.133ZM14.2551 294.706C15.1568 300.431 16.037 306.084 16.8528 311.265H11.1851L8.40135 294.706H14.2551ZM42.6293 311.265L43.1804 294.706H49.2345L47.8033 311.265H42.6293ZM44.1107 266.503L44.6975 248.856H53.1275L51.6247 266.503H44.1107ZM6.9558 248.856C7.19911 250.13 8.31548 257.078 9.81827 266.503H3.67827L0.715618 248.856H6.9558ZM53.1346 311.265H48.4044L49.8356 294.706H55.0882L53.1346 311.265ZM58.3872 266.503H52.2329L53.7429 248.856H60.4554L58.3872 266.503Z" fill="#E0E0E0"/>
<path d="M310.077 319.452C310.077 319.559 244.555 319.638 163.74 319.638C82.9258 319.638 17.3895 319.559 17.3895 319.452C17.3895 319.344 82.8971 319.266 163.74 319.266C244.584 319.266 310.077 319.352 310.077 319.452Z" fill="#263238"/>
<path d="M247.74 156.534C247.74 156.534 256.191 146.809 259.383 137.077C262.574 127.344 261.057 128.489 261.057 128.489C261.057 128.489 256.764 137.935 253.486 142.501C250.209 147.067 244.391 153.765 244.391 153.765L247.74 156.534Z" fill="#455A64"/>
<path d="M246.029 129.978C246.087 129.879 246.177 129.803 246.284 129.763C246.391 129.723 246.509 129.722 246.617 129.759C246.725 129.796 246.816 129.87 246.876 129.967C246.936 130.064 246.961 130.179 246.945 130.293C246.43 133.713 245.314 141.742 245.357 146.931C245.414 153.686 245.357 156.298 245.357 156.298H241.836C241.836 156.298 242.466 142.329 243.267 138.071C243.787 135.253 244.717 132.526 246.029 129.978Z" fill="#455A64"/>
<path d="M244.14 155.167C242.664 151.827 241.687 148.287 241.242 144.662C240.956 142.172 241.471 138.808 242.237 134.329C242.534 132.675 242.685 130.999 242.687 129.319C242.683 129.134 242.619 128.955 242.503 128.81C242.387 128.665 242.227 128.563 242.047 128.518C241.867 128.473 241.678 128.489 241.507 128.563C241.337 128.636 241.196 128.764 241.106 128.926C240.255 130.496 239.596 132.164 239.145 133.892C238.294 138.322 237.327 140.533 238.065 144.741C238.802 148.949 241.528 155.411 241.528 155.411L244.14 155.167Z" fill="#455A64"/>
<path d="M240.97 155.446C240.97 155.446 231.667 135.502 231.044 132.547C230.422 129.591 228.218 122.764 227.96 123.151C227.702 123.537 227.316 127.144 228.991 131.259C230.665 135.373 237.8 156.055 237.8 156.055H240.97" fill="#455A64"/>
<path d="M245.156 154.559C245.156 154.559 245.249 154.502 245.414 154.38C245.579 154.259 245.829 154.08 246.13 153.829C246.996 153.137 247.827 152.401 248.62 151.625C251.226 149.052 253.482 146.148 255.332 142.988C257.192 139.829 258.74 136.498 259.955 133.04C260.428 131.717 260.764 130.636 260.986 129.877C261.1 129.505 261.179 129.212 261.229 129.012C261.264 128.912 261.288 128.809 261.301 128.704C261.301 128.704 261.258 128.804 261.193 128.997L260.914 129.856C260.671 130.572 260.306 131.681 259.826 132.998C258.584 136.43 257.032 139.743 255.189 142.895C253.342 146.046 251.103 148.95 248.527 151.539C247.539 152.527 246.688 153.278 246.087 153.786L245.371 154.359C245.294 154.419 245.222 154.486 245.156 154.559Z" fill="#263238"/>
<path d="M244.14 144.991C244.186 144.799 244.215 144.602 244.226 144.404C244.269 143.989 244.326 143.453 244.391 142.802C244.541 141.456 244.77 139.596 245.106 137.549C245.443 135.502 245.822 133.663 246.087 132.339L246.423 130.765C246.475 130.575 246.508 130.381 246.523 130.185C246.453 130.37 246.393 130.559 246.344 130.751C246.244 131.115 246.108 131.645 245.943 132.311C245.629 133.627 245.228 135.466 244.913 137.52C244.598 139.574 244.376 141.435 244.262 142.787C244.205 143.467 244.169 144.018 244.154 144.397C244.13 144.594 244.125 144.793 244.14 144.991Z" fill="#263238"/>
<path d="M241.965 128.804C241.922 128.884 241.886 128.968 241.857 129.054L241.578 129.77C241.457 130.092 241.313 130.486 241.177 130.958C241.041 131.43 240.863 131.953 240.727 132.554C240.655 132.854 240.576 133.169 240.498 133.491C240.419 133.813 240.369 134.164 240.297 134.522C240.14 135.237 240.047 135.996 239.939 136.797C239.735 138.552 239.661 140.32 239.718 142.086C239.787 143.853 239.983 145.613 240.304 147.353C240.476 148.147 240.626 148.906 240.827 149.6C240.927 149.951 241.006 150.315 241.106 150.609L241.399 151.532C241.578 152.119 241.793 152.634 241.965 153.092C242.136 153.55 242.301 153.937 242.451 154.244L242.78 154.96C242.815 155.045 242.859 155.126 242.909 155.203C242.909 155.203 242.909 155.11 242.816 154.938C242.723 154.767 242.644 154.509 242.516 154.223C242.387 153.937 242.229 153.507 242.072 153.056C241.915 152.605 241.7 152.083 241.535 151.496L241.249 150.573C241.156 150.258 241.077 149.915 240.984 149.564C240.791 148.848 240.648 148.133 240.483 147.324C240.176 145.595 239.983 143.848 239.904 142.093C239.853 140.337 239.923 138.58 240.111 136.833C240.219 136.032 240.304 135.266 240.448 134.565C240.519 134.207 240.569 133.849 240.641 133.541C240.712 133.234 240.791 132.897 240.855 132.604C240.984 132.003 241.149 131.473 241.278 131.001C241.406 130.529 241.535 130.135 241.643 129.806L241.886 129.054C241.922 128.974 241.949 128.89 241.965 128.804Z" fill="#263238"/>
<path d="M228.067 123.551C228.067 123.551 228.067 123.551 228.067 123.644V123.902C228.11 124.131 228.16 124.467 228.253 124.897C228.432 125.755 228.733 126.986 229.198 128.475C229.663 129.963 230.293 131.724 231.044 133.656C231.796 135.588 232.662 137.692 233.485 139.932C234.308 142.172 234.966 144.347 235.574 146.33C236.182 148.312 236.741 150.086 237.292 151.561C237.706 152.721 238.184 153.859 238.723 154.967C238.909 155.361 239.081 155.683 239.195 155.862L239.324 156.091C239.338 156.116 239.355 156.14 239.374 156.162C239.365 156.132 239.353 156.104 239.338 156.076L239.231 155.84C239.131 155.633 238.973 155.332 238.794 154.938C238.259 153.821 237.781 152.677 237.363 151.511C236.827 150.036 236.275 148.262 235.682 146.279C235.088 144.297 234.444 142.107 233.606 139.839C232.769 137.57 231.903 135.495 231.152 133.57C230.4 131.645 229.72 129.899 229.262 128.41C228.804 126.922 228.468 125.691 228.261 124.832C228.16 124.41 228.096 124.074 228.046 123.852L227.981 123.594L228.067 123.551Z" fill="#263238"/>
<path d="M256.685 119.15C256.813 119.029 256.978 118.954 257.154 118.936C257.33 118.918 257.507 118.959 257.657 119.052C257.807 119.145 257.922 119.285 257.984 119.451C258.047 119.616 258.053 119.797 258.002 119.966C257.679 120.99 257.289 121.992 256.835 122.965C255.554 125.677 251.826 135.402 250.051 140.748C248.276 146.093 245.829 156.055 245.829 156.055L242.079 155.446C242.079 155.446 245.507 139.073 248.856 133.169C251.547 128.425 254.237 121.591 256.685 119.15Z" fill="#455A64"/>
<path d="M249.028 144.09C248.947 144.23 248.882 144.379 248.835 144.533C248.727 144.827 248.577 145.249 248.405 145.793C248.062 146.859 247.639 148.355 247.21 150.015C246.781 151.675 246.43 153.178 246.187 154.273C246.072 154.795 245.979 155.225 245.908 155.575C245.863 155.732 245.837 155.892 245.829 156.055C245.897 155.906 245.947 155.75 245.979 155.59C246.072 155.253 246.187 154.817 246.323 154.309L247.403 150.065C247.826 148.405 248.226 146.909 248.541 145.836C248.684 145.328 248.813 144.898 248.906 144.562C248.965 144.41 249.006 144.251 249.028 144.09Z" fill="#263238"/>
<path d="M243.947 155.754V155.654L243.99 155.361C244.026 155.096 244.061 154.717 244.14 154.223C244.276 153.235 244.527 151.818 244.927 150.094C245.405 148.067 245.99 146.068 246.681 144.104C247.446 141.886 248.412 139.488 249.507 137.005C251.711 132.046 253.908 127.652 255.354 124.396C256.069 122.779 256.656 121.455 257.028 120.531C257.214 120.066 257.35 119.709 257.451 119.465C257.494 119.351 257.522 119.258 257.551 119.186C257.579 119.115 257.587 119.086 257.551 119.086L257.508 119.179C257.472 119.251 257.436 119.336 257.386 119.451C257.272 119.701 257.121 120.052 256.928 120.496C256.535 121.412 255.948 122.728 255.204 124.339C253.722 127.573 251.504 131.96 249.293 136.926C248.198 139.409 247.239 141.814 246.48 144.047C245.793 146.016 245.22 148.023 244.763 150.058C244.454 151.431 244.216 152.819 244.047 154.216C243.983 154.702 243.961 155.096 243.933 155.353V155.647C243.937 155.718 243.942 155.754 243.947 155.754Z" fill="#263238"/>
<path d="M242.079 155.446C242.139 155.24 242.182 155.03 242.208 154.817C242.28 154.38 242.38 153.801 242.501 153.099C242.759 151.668 243.153 149.643 243.718 147.467C244.283 145.292 244.913 143.353 245.4 141.964C245.636 141.292 245.836 140.741 245.986 140.318C246.067 140.121 246.132 139.918 246.18 139.71C246.077 139.897 245.989 140.09 245.915 140.29C245.75 140.669 245.521 141.22 245.264 141.914C244.591 143.718 244.011 145.555 243.525 147.417C242.959 149.564 242.587 151.611 242.358 153.071C242.251 153.786 242.172 154.395 242.129 154.81C242.096 155.02 242.08 155.233 242.079 155.446Z" fill="#263238"/>
<path d="M234.393 172.729H249.013V154.91H234.393V172.729Z" fill="#00CCCB"/>
<g opacity="0.3">
<path d="M234.393 172.729H249.013V154.91H234.393V172.729Z" fill="black"/>
</g>
<path d="M239.052 172.729H252.026V154.91H239.052V172.729Z" fill="#00CCCB"/>
<path d="M117.615 8.15953L90.469 16.8491L96.3268 35.1487L123.473 26.4592L117.615 8.15953Z" fill="#00CCCB"/>
<path d="M117.776 8.33694C117.727 8.45184 117.667 8.56202 117.597 8.66613C117.461 8.89513 117.283 9.19568 117.054 9.56781L115.014 12.874L108.18 23.7442L108.123 23.8301H108.022L107.786 23.737L95.6208 19.0712L91.9497 17.64L90.955 17.2392C90.836 17.1972 90.7211 17.1445 90.6115 17.0818C90.7339 17.106 90.8538 17.142 90.9693 17.1891L91.9855 17.5469L95.6852 18.9138L107.851 23.5152L108.094 23.6011L107.937 23.6583L114.842 12.8239C115.723 11.4642 116.438 10.355 116.953 9.56781L117.533 8.6876C117.603 8.56357 117.685 8.4462 117.776 8.33694Z" fill="#263238"/>
<path d="M96.4653 35.33C96.4009 35.33 97.6389 32.1384 99.2275 28.2669C100.816 24.3954 102.169 21.2753 102.233 21.3039C102.298 21.3326 101.067 24.4956 99.4709 28.3671C97.875 32.2386 96.5511 35.3587 96.4653 35.33Z" fill="#263238"/>
<path d="M111.207 18.1838C111.25 18.1266 114.069 19.9729 117.49 22.3058C120.911 24.6387 123.673 26.5995 123.63 26.5995C123.587 26.5995 120.768 24.8176 117.347 22.4847C113.926 20.1518 111.164 18.2482 111.207 18.1838Z" fill="#263238"/>
<path d="M237.556 47.8319L217.355 39.2946C216.694 39.0051 216.174 38.4678 215.907 37.7984C215.639 37.1291 215.645 36.3814 215.923 35.7165L227.774 7.75012C228.062 7.08866 228.599 6.56742 229.269 6.29949C229.939 6.03155 230.687 6.03852 231.352 6.31889L244.169 11.7433L249.751 26.1701L241.163 46.4436C240.866 47.1032 240.32 47.6189 239.645 47.8789C238.97 48.1388 238.219 48.1219 237.556 47.8319Z" fill="#00CCCB"/>
<path d="M244.162 11.6717L240.827 19.5435C240.695 19.8521 240.625 20.1837 240.622 20.5193C240.618 20.8549 240.681 21.1879 240.807 21.4991C240.933 21.8104 241.119 22.0937 241.354 22.3328C241.59 22.5719 241.87 22.7622 242.179 22.8926L249.743 26.0985L244.162 11.6717Z" fill="#00CCCB"/>
<g opacity="0.2">
<path d="M240.634 20.2806C240.391 20.8791 240.358 21.5421 240.54 22.1619C240.722 22.7816 241.108 23.3216 241.635 23.6941C241.706 23.7529 241.78 23.8079 241.857 23.8587C242.773 24.4526 248.784 28.3671 248.849 28.2168L249.743 26.0699L242.179 22.864C242.179 22.864 240.304 22.0267 240.634 20.2806Z" fill="black"/>
</g>
<g opacity="0.3">
<path d="M244.162 11.6717L240.827 19.5435C240.695 19.8521 240.625 20.1837 240.622 20.5193C240.618 20.8549 240.681 21.1879 240.807 21.4991C240.933 21.8104 241.119 22.0937 241.354 22.3328C241.59 22.5719 241.87 22.7622 242.179 22.8926L249.743 26.0985L244.162 11.6717Z" fill="white"/>
</g>
<path d="M239.267 18.5416C237.638 18.0676 236.05 17.4671 234.515 16.7454C232.929 16.1468 231.391 15.4291 229.914 14.5986C231.546 15.068 233.137 15.6687 234.672 16.3948C236.258 16.9889 237.794 17.7067 239.267 18.5416Z" fill="#FAFAFA"/>
<path d="M243.417 25.5117C243.374 25.6119 239.897 24.2379 235.646 22.4346C231.395 20.6312 227.989 19.0998 228.032 18.9925C228.075 18.8851 231.552 20.2734 235.803 22.0696C240.054 23.8658 243.46 25.4116 243.417 25.5117Z" fill="#FAFAFA"/>
<path d="M243.231 29.8198C243.188 29.92 239.396 28.3885 234.766 26.4492C230.135 24.5099 226.414 22.8353 226.457 22.7137C226.5 22.592 230.286 24.1449 234.923 26.0843C239.56 28.0236 243.274 29.7124 243.231 29.8198Z" fill="#FAFAFA"/>
<path d="M241.736 33.3263C241.693 33.4265 237.907 31.8951 233.277 29.9557C228.647 28.0164 224.926 26.3204 224.962 26.2202C224.997 26.12 228.797 27.6515 233.427 29.5908C238.057 31.5301 241.786 33.219 241.736 33.3263Z" fill="#FAFAFA"/>
<path d="M240.261 36.8257C240.219 36.933 236.426 35.3944 231.796 33.4623C227.166 31.5301 223.444 29.8269 223.487 29.7267C223.53 29.6265 227.316 31.158 231.953 33.0973C236.59 35.0366 240.304 36.7255 240.261 36.8257Z" fill="#FAFAFA"/>
<path d="M238.773 40.3322C238.73 40.4395 234.937 38.9009 230.307 36.9688C225.677 35.0366 221.956 33.3334 221.999 33.2333C222.042 33.1331 225.835 34.6645 230.465 36.5967C235.095 38.5288 238.816 40.232 238.773 40.3322Z" fill="#FAFAFA"/>
<path d="M169.616 53.7643C184.377 53.7643 196.344 41.7977 196.344 27.036C196.344 12.2744 184.377 0.307709 169.616 0.307709C154.854 0.307709 142.887 12.2744 142.887 27.036C142.887 41.7977 154.854 53.7643 169.616 53.7643Z" fill="white"/>
<path d="M196.344 27.036C196.344 27.036 196.344 26.8929 196.301 26.6067C196.258 26.3204 196.251 25.891 196.215 25.3329C196.215 25.0538 196.179 24.7461 196.158 24.4026C196.136 24.0591 196.051 23.6869 195.993 23.2862C195.874 22.3556 195.687 21.4349 195.435 20.5311C194.811 18.0313 193.812 15.6403 192.473 13.4393C190.532 10.206 187.929 7.42022 184.834 5.26542C181.739 3.11062 178.223 1.63561 174.518 0.937464C173.409 0.731385 172.288 0.602264 171.161 0.551029C170.589 0.551029 170.009 0.47231 169.43 0.479466L167.669 0.572497C167.376 0.572497 167.075 0.572498 166.782 0.629748L165.894 0.765714C165.308 0.865901 164.707 0.937462 164.113 1.05912C161.676 1.60634 159.321 2.46751 157.107 3.62103C156.549 3.92159 156.012 4.2794 155.454 4.60858C155.182 4.78033 154.895 4.93061 154.631 5.12383L153.851 5.71063C151.684 7.28413 149.789 9.20099 148.24 11.3855L147.632 12.2013L147.095 13.0743L146.558 13.9188C146.369 14.2064 146.202 14.5078 146.058 14.8204C145.764 15.443 145.464 16.0656 145.156 16.6954L144.44 18.6562C143.567 21.3653 143.104 24.1899 143.066 27.036C143.104 29.8799 143.567 32.7021 144.44 35.4088C144.676 36.0671 144.92 36.7255 145.156 37.3767C145.392 38.0279 145.757 38.629 146.058 39.2445C146.2 39.5602 146.368 39.8642 146.558 40.1533L147.095 41.0335L147.625 41.9066L148.24 42.7224C149.034 43.8069 149.902 44.8351 150.838 45.7995C151.784 46.7191 152.791 47.575 153.851 48.3614L154.631 48.9482C154.895 49.1415 155.182 49.2917 155.454 49.4635C156.012 49.7927 156.549 50.1791 157.107 50.451C159.321 51.6046 161.676 52.4657 164.113 53.013C164.707 53.1418 165.308 53.2062 165.902 53.3064L166.782 53.4423C167.082 53.4423 167.376 53.4423 167.669 53.4996L169.458 53.6069C170.038 53.6069 170.618 53.5568 171.19 53.5425C172.317 53.4889 173.438 53.3574 174.546 53.1489C178.253 52.4534 181.77 50.9794 184.865 48.8244C187.96 46.6693 190.563 43.8822 192.501 40.6471C193.829 38.4488 194.818 36.0629 195.435 33.5696C195.687 32.6658 195.874 31.7451 195.993 30.8145C196.051 30.4138 196.122 30.0416 196.158 29.6981C196.194 29.3546 196.201 29.0469 196.215 28.7678C196.253 28.2144 196.282 27.7922 196.301 27.5012C196.301 27.2149 196.344 27.0647 196.344 27.0647C196.344 27.0647 196.344 27.2149 196.344 27.5012C196.344 27.7874 196.344 28.2168 196.301 28.7678C196.301 29.0541 196.301 29.3618 196.258 29.7124C196.215 30.0631 196.165 30.4281 196.108 30.8288C195.998 31.754 195.821 32.67 195.578 33.5696C194.972 36.0899 193.985 38.503 192.651 40.7258C190.713 44.0055 188.098 46.835 184.981 49.0263C181.865 51.2176 178.317 52.7205 174.575 53.4352C173.455 53.6456 172.321 53.7795 171.183 53.8359C170.603 53.8359 170.016 53.9146 169.43 53.9075L167.648 53.8216C167.347 53.8216 167.047 53.8216 166.746 53.7644L165.88 53.6069C165.279 53.5067 164.671 53.4423 164.07 53.3135C162.854 53.0474 161.659 52.6983 160.492 52.2687C159.287 51.8389 158.113 51.3272 156.978 50.7373C156.413 50.4296 155.862 50.0718 155.303 49.7354C155.024 49.5565 154.731 49.4062 154.466 49.213L153.679 48.6191C152.605 47.8231 151.584 46.9578 150.623 46.0285C149.673 45.0499 148.791 44.0074 147.983 42.9084L147.36 42.0855L146.816 41.1981L146.279 40.3036C146.085 40.0128 145.915 39.7064 145.771 39.3876C145.471 38.7579 145.163 38.1281 144.862 37.4912L144.147 35.4946C143.265 32.7503 142.797 29.8898 142.759 27.0074C142.781 24.1346 143.232 21.2812 144.097 18.5417L144.812 16.5522L145.728 14.6487C145.871 14.3308 146.039 14.0246 146.229 13.7327L146.773 12.8453L147.31 11.958L147.932 11.1279C148.742 10.0326 149.625 8.99269 150.573 8.01492C151.534 7.08567 152.555 6.2203 153.629 5.42438L154.416 4.83042C154.681 4.63721 154.974 4.48693 155.253 4.30802C155.811 3.97884 156.362 3.5924 156.928 3.31331C159.173 2.14988 161.559 1.28156 164.027 0.729934C164.628 0.608279 165.236 0.536717 165.837 0.436531L166.732 0.300562C167.032 0.300562 167.333 0.300563 167.633 0.243314L169.415 0.15744C170.002 0.15744 170.582 0.207532 171.161 0.229001C172.302 0.28853 173.437 0.422397 174.561 0.629748C178.303 1.34443 181.85 2.84735 184.967 5.03865C188.084 7.22995 190.698 10.0594 192.637 13.3391C193.971 15.562 194.958 17.9751 195.564 20.4953C195.806 21.4068 195.98 22.3349 196.086 23.2719C196.144 23.6798 196.208 24.0519 196.237 24.3954L196.28 25.3329C196.28 25.8839 196.315 26.3061 196.323 26.6067C196.33 26.9072 196.344 27.036 196.344 27.036Z" fill="#263238"/>
<path d="M182.289 26.2847C181.939 26.4133 181.581 26.5162 181.216 26.5924L178.232 27.308C175.706 27.8948 172.199 28.6891 168.277 29.5479L168.056 29.598V28.5603C168.056 24.374 168.056 20.5812 168.106 17.8261C168.106 16.5093 168.156 15.4144 168.17 14.5771C168.159 14.1798 168.183 13.7824 168.242 13.3892C168.295 13.7828 168.319 14.1799 168.313 14.5771C168.313 15.4144 168.349 16.5093 168.371 17.8261C168.371 20.574 168.428 24.3668 168.428 28.5603V29.3403L168.199 29.1543C172.12 28.3027 175.634 27.5513 178.174 27.0074L181.18 26.4135C181.545 26.3363 181.916 26.2932 182.289 26.2847Z" fill="#263238"/>
<path d="M198.255 38.0565C198.28 37.9073 198.321 37.7611 198.376 37.62C198.455 37.3409 198.62 36.9044 198.763 36.4035C199.223 34.9021 199.572 33.369 199.808 31.8164C200.626 26.6862 200.136 21.4326 198.385 16.5418C196.634 11.6509 193.677 7.28075 189.789 3.83571C188.624 2.79366 187.385 1.83702 186.082 0.97324C185.624 0.651213 185.245 0.436527 185.009 0.257623C184.878 0.182072 184.753 0.0959086 184.636 0C184.781 0.0432968 184.919 0.108452 185.044 0.193217C185.295 0.336341 185.688 0.529556 186.161 0.837271C187.506 1.66473 188.779 2.60306 189.968 3.64249C193.939 7.07842 196.954 11.4832 198.719 16.4287C200.485 21.3743 200.941 26.6925 200.044 31.8665C199.79 33.4169 199.409 34.9439 198.906 36.4321C198.734 36.9617 198.548 37.3624 198.448 37.6343C198.4 37.782 198.335 37.9236 198.255 38.0565Z" fill="#263238"/>
<path d="M203.379 24.9035C203.321 24.9035 203.285 23.8372 203.071 22.1341C202.784 19.9194 202.281 17.7383 201.568 15.6219C200.849 13.5145 199.921 11.4841 198.799 9.56067C197.926 8.07934 197.296 7.2206 197.367 7.18481C197.56 7.34602 197.729 7.53399 197.868 7.743C198.162 8.12943 198.584 8.69477 199.042 9.41754C200.26 11.3206 201.245 13.3627 201.976 15.5003C202.713 17.6376 203.193 19.8548 203.407 22.1054C203.486 22.9642 203.507 23.6655 203.507 24.1521C203.504 24.4078 203.461 24.6613 203.379 24.9035Z" fill="#263238"/>
<path d="M142.93 11.5572C142.888 11.7 142.828 11.837 142.751 11.9651C142.623 12.2299 142.401 12.602 142.172 13.1101C139.477 18.4639 138.39 24.4833 139.041 30.4415C139.692 36.3997 142.055 42.0419 145.843 46.6869C146.829 47.9063 147.9 49.0541 149.049 50.1218C149.45 50.5083 149.764 50.7802 150.001 50.9806C150.116 51.0774 150.223 51.1827 150.323 51.2955C150.188 51.2254 150.063 51.1389 149.951 51.0378C149.722 50.8589 149.371 50.6013 148.956 50.2292C147.761 49.1961 146.652 48.0664 145.643 46.8515C142.265 42.829 139.987 38.0005 139.03 32.8362C138.074 27.6719 138.47 22.3478 140.182 17.3823C140.687 15.8866 141.317 14.436 142.064 13.0457C142.315 12.5448 142.558 12.1798 142.701 11.9293C142.767 11.7992 142.844 11.6747 142.93 11.5572Z" fill="#263238"/>
<path d="M135.781 23.7299C135.846 23.7299 135.71 24.7962 135.652 26.5136C135.577 28.744 135.728 30.9763 136.103 33.176C136.487 35.378 137.091 37.5358 137.907 39.6166C138.529 41.2124 139.016 42.1642 138.959 42.1928C138.798 41.9991 138.663 41.7849 138.558 41.5559C138.322 41.1337 138.007 40.5111 137.663 39.7168C136.765 37.6546 136.116 35.4924 135.731 33.2762C135.351 31.0506 135.236 28.7878 135.388 26.5351C135.452 25.6692 135.538 24.9751 135.617 24.4956C135.637 24.2341 135.692 23.9765 135.781 23.7299Z" fill="#263238"/>
<path d="M191.743 31.4228C190.734 31.2153 189.918 31.0364 189.918 31.0292C189.918 31.022 190.741 31.1795 191.75 31.387C192.759 31.5945 193.575 31.7663 193.567 31.7734C193.56 31.7806 192.744 31.6589 191.743 31.4228Z" fill="#263238"/>
<path d="M189.152 38.1854C188.265 37.663 187.549 37.2336 187.549 37.2264C187.549 37.2193 188.265 37.6343 189.166 38.1567C190.068 38.6791 190.769 39.1085 190.762 39.1157C190.755 39.1228 190.032 38.7078 189.152 38.1854Z" fill="#263238"/>
<path d="M184.486 43.7099C183.814 42.9227 183.277 42.2787 183.284 42.2787C183.291 42.2787 183.842 42.9013 184.508 43.7099C185.173 44.5186 185.717 45.1412 185.703 45.1412C185.688 45.1412 185.202 44.4899 184.486 43.7099Z" fill="#263238"/>
<path d="M178.325 47.4312C177.945 46.4722 177.645 45.6922 177.652 45.6922C177.659 45.6922 177.974 46.4579 178.368 47.4168C178.761 48.3758 179.048 49.1486 179.033 49.1558C179.019 49.1629 178.704 48.3829 178.325 47.4312Z" fill="#263238"/>
<path d="M171.269 48.9411C171.226 47.9106 171.197 47.0805 171.204 47.0805C171.212 47.0805 171.262 47.9106 171.305 48.9411C171.347 49.9716 171.383 50.8017 171.376 50.8017C171.369 50.8017 171.319 49.9716 171.269 48.9411Z" fill="#263238"/>
<path d="M164.105 48.0752C164.392 47.0876 164.628 46.2933 164.642 46.2933C164.656 46.2933 164.427 47.102 164.141 48.0895C163.855 49.0771 163.612 49.8714 163.597 49.8714C163.583 49.8714 163.812 49.0627 164.105 48.0752Z" fill="#263238"/>
<path d="M157.6 44.9408C158.194 44.0964 158.681 43.4237 158.695 43.4308C158.71 43.438 158.223 44.1465 157.629 44.9623C157.035 45.7781 156.577 46.4508 156.577 46.4508C156.577 46.4508 157.006 45.7781 157.6 44.9408Z" fill="#263238"/>
<path d="M152.484 39.8599C153.314 39.2516 153.994 38.7722 154.001 38.7793C154.008 38.7865 153.335 39.2802 152.498 39.8885C151.661 40.4968 150.988 40.9691 150.981 40.962C150.974 40.9548 151.647 40.461 152.484 39.8599Z" fill="#263238"/>
<path d="M149.278 33.3907C150.265 33.0902 151.067 32.854 151.067 32.8612C151.067 32.8683 150.273 33.126 149.285 33.4265C148.297 33.7271 147.503 33.9561 147.503 33.9489C147.503 33.9418 148.297 33.6913 149.278 33.3907Z" fill="#263238"/>
<path d="M148.355 26.2346C149.385 26.2346 150.215 26.3061 150.215 26.3204C150.215 26.3347 149.378 26.3204 148.355 26.2703C147.331 26.2202 146.487 26.1916 146.494 26.1845C146.501 26.1773 147.324 26.1916 148.355 26.2346Z" fill="#263238"/>
<path d="M149.8 19.1571C150.766 19.5292 151.539 19.8298 151.539 19.8727C151.539 19.9156 150.752 19.5865 149.786 19.2215C148.82 18.8565 148.054 18.5488 148.054 18.5416C148.054 18.5345 148.841 18.7921 149.8 19.1571Z" fill="#263238"/>
<path d="M153.471 12.9384C154.259 13.6039 154.903 14.1478 154.903 14.1549C154.903 14.1621 154.251 13.6325 153.471 12.967C152.691 12.3015 152.04 11.7648 152.04 11.7576C152.04 11.7505 152.677 12.28 153.471 12.9384Z" fill="#263238"/>
<path d="M158.953 8.25822C159.483 9.13843 159.912 9.85405 159.905 9.8612C159.898 9.86836 159.454 9.14559 158.924 8.27253C158.395 7.39948 157.965 6.6767 157.973 6.66955C157.98 6.66239 158.423 7.37801 158.953 8.25822Z" fill="#263238"/>
<path d="M165.658 5.59613C165.873 6.60515 166.045 7.42095 166.038 7.42095C166.03 7.42095 165.844 6.6123 165.623 5.60328C165.401 4.59426 165.236 3.78561 165.25 3.77846C165.265 3.7713 165.444 4.59426 165.658 5.59613Z" fill="#263238"/>
<path d="M172.865 5.26696C172.743 6.2903 172.636 7.11326 172.628 7.11326C172.621 7.11326 172.707 6.28314 172.836 5.25981C172.965 4.23647 173.065 3.41351 173.072 3.41351C173.079 3.41351 172.993 4.22932 172.865 5.26696Z" fill="#263238"/>
<path d="M179.799 7.29215C179.355 8.2153 178.983 8.9667 178.976 8.95954C178.969 8.95238 179.319 8.20099 179.763 7.27068C180.207 6.34038 180.579 5.59614 180.593 5.60329C180.608 5.61045 180.243 6.37616 179.799 7.29215Z" fill="#263238"/>
<path d="M185.688 11.457C184.973 12.1727 184.372 12.7738 184.365 12.7666C184.357 12.7595 184.944 12.1584 185.667 11.4284C186.39 10.6985 186.984 10.1117 186.991 10.1188C186.998 10.126 186.418 10.7271 185.688 11.457Z" fill="#263238"/>
<path d="M189.911 17.3036C188.987 17.7616 188.236 18.1266 188.236 18.1194C188.236 18.1123 188.952 17.733 189.896 17.275C190.841 16.817 191.571 16.4521 191.571 16.4592C191.571 16.4664 190.834 16.8456 189.911 17.3036Z" fill="#263238"/>
<path d="M192.015 24.2094L190.161 24.4312C190.161 24.4312 190.984 24.3024 192.007 24.1736C193.031 24.0448 193.854 23.9374 193.854 23.9446C193.854 23.9517 193.031 24.0734 192.015 24.2094Z" fill="#263238"/>
<path d="M205.239 21.7405C204.842 22.9488 204.329 24.1159 203.708 25.2255L203.665 25.3043L203.522 25.5977L203.343 25.3257C202.623 24.3208 202.004 23.2468 201.496 22.1198C202.322 23.0433 203.055 24.0451 203.686 25.111H203.364L203.407 25.0252C203.91 23.8736 204.524 22.7735 205.239 21.7405Z" fill="#263238"/>
<path d="M217.405 82.1744H133.298C131.322 82.1744 129.428 82.9592 128.03 84.3563C126.633 85.7534 125.849 87.6482 125.849 89.624C125.849 91.5997 126.633 93.4945 128.03 94.8916C129.428 96.2887 131.322 97.0735 133.298 97.0735H172.657L181.466 105.468V97.0735H217.405C218.383 97.0735 219.352 96.8808 220.255 96.5065C221.159 96.1321 221.981 95.5834 222.672 94.8916C223.364 94.1998 223.913 93.3786 224.287 92.4748C224.662 91.571 224.854 90.6023 224.854 89.624C224.854 88.6457 224.662 87.677 224.287 86.7731C223.913 85.8693 223.364 85.0481 222.672 84.3563C221.981 83.6646 221.159 83.1158 220.255 82.7414C219.352 82.3671 218.383 82.1744 217.405 82.1744Z" fill="#FAFAFA"/>
<path d="M217.405 82.1744H217.677C217.95 82.1772 218.222 82.1987 218.492 82.2388C219.555 82.3812 220.574 82.755 221.477 83.3337C222.34 83.8834 223.082 84.6041 223.656 85.4513C224.23 86.2986 224.625 87.2544 224.816 88.26C225.007 89.2656 224.991 90.2996 224.767 91.2985C224.543 92.2973 224.118 93.2398 223.516 94.0679C222.703 95.2 221.594 96.0864 220.31 96.6299C219.622 96.9083 218.9 97.0936 218.163 97.1809C217.397 97.2381 216.639 97.2167 215.852 97.2238H205.719H181.452L181.617 97.0592C181.617 99.6927 181.617 102.541 181.617 105.453V105.847L181.33 105.575L172.514 97.1809L172.636 97.231H139.188H133.348C131.399 97.2513 129.516 96.5246 128.085 95.2C126.655 93.8753 125.786 92.0534 125.657 90.1082C125.528 88.163 126.148 86.2422 127.391 84.7401C128.634 83.2381 130.404 82.2688 132.339 82.0313C133.269 81.9311 134.164 81.9812 135.066 81.9669H148.161L184.2 82.0098L208.531 82.067L215.136 82.1028H216.854C217.24 82.1028 217.44 82.1028 217.44 82.1028H216.854H215.136L208.531 82.1386L184.2 82.203H148.161H135.066C134.171 82.203 133.255 82.203 132.389 82.2674C130.597 82.4902 128.953 83.3761 127.781 84.7506C126.878 85.8098 126.298 87.1057 126.11 88.4846C125.922 89.8635 126.134 91.2673 126.72 92.5294C127.307 93.7915 128.243 94.8589 129.418 95.6048C130.592 96.3506 131.957 96.7437 133.348 96.7372H139.188H172.636H172.707L172.757 96.7801L181.567 105.181L181.28 105.303C181.28 102.391 181.28 99.5424 181.28 96.9089V96.7515H181.438H205.704H215.837C216.617 96.7515 217.39 96.7515 218.127 96.7515C218.847 96.6716 219.552 96.4959 220.224 96.2291C221.708 95.6047 222.947 94.5132 223.754 93.1204C224.56 91.7276 224.89 90.1095 224.693 88.512C224.497 86.9145 223.784 85.4249 222.663 84.2694C221.543 83.1139 220.076 82.3557 218.485 82.11C217.777 82.1815 217.405 82.2316 217.405 82.1744Z" fill="#263238"/>
<path d="M170.081 94.8909H133.248C132.556 94.8919 131.871 94.7563 131.231 94.4919C130.592 94.2275 130.011 93.8396 129.522 93.3504C129.032 92.8611 128.644 92.2801 128.38 91.6406C128.116 91.0012 127.98 90.3159 127.981 89.624C127.985 88.2302 128.542 86.895 129.529 85.9114C130.517 84.9279 131.854 84.3766 133.248 84.3785H170.081C170.772 84.3775 171.457 84.5129 172.096 84.7768C172.735 85.0407 173.316 85.428 173.805 85.9165C174.294 86.405 174.682 86.9852 174.947 87.6238C175.212 88.2624 175.348 88.9469 175.348 89.6383C175.347 90.329 175.21 91.0128 174.945 91.6506C174.679 92.2883 174.291 92.8677 173.802 93.3554C173.313 93.8432 172.733 94.2298 172.094 94.4933C171.456 94.7567 170.772 94.8918 170.081 94.8909Z" fill="#00CCCB"/>
<path d="M173.165 74.4958L171.92 78.3029H170.975L170.138 75.7267L169.272 78.3029H168.335L167.082 74.4958H168.027L168.886 77.1722L169.78 74.4958H170.596L171.469 77.1937L172.349 74.4958H173.165Z" fill="#263238"/>
<path d="M173.373 76.3993C173.35 75.9834 173.452 75.5701 173.667 75.2129C173.881 74.8557 174.198 74.5711 174.576 74.3958C174.954 74.2204 175.375 74.1625 175.787 74.2295C176.198 74.2964 176.579 74.4852 176.882 74.7713C177.185 75.0575 177.395 75.4278 177.485 75.8346C177.575 76.2414 177.541 76.6658 177.388 77.053C177.234 77.4403 176.968 77.7725 176.623 78.0068C176.279 78.2411 175.872 78.3667 175.455 78.3673C175.187 78.3829 174.919 78.3436 174.667 78.2517C174.415 78.1598 174.184 78.0173 173.989 77.833C173.794 77.6487 173.639 77.4264 173.533 77.1799C173.427 76.9333 173.372 76.6677 173.373 76.3993ZM176.643 76.3993C176.637 76.1657 176.563 75.9389 176.429 75.7473C176.295 75.5558 176.108 75.408 175.89 75.3225C175.673 75.2369 175.435 75.2174 175.206 75.2665C174.978 75.3155 174.769 75.4308 174.606 75.598C174.442 75.7652 174.332 75.9769 174.288 76.2065C174.245 76.4362 174.27 76.6735 174.361 76.8889C174.451 77.1043 174.604 77.2882 174.798 77.4175C174.993 77.5468 175.221 77.6158 175.455 77.6159C175.612 77.6161 175.768 77.5843 175.912 77.5225C176.057 77.4607 176.187 77.3701 176.296 77.2564C176.404 77.1426 176.488 77.0079 176.543 76.8606C176.598 76.7133 176.622 76.5563 176.614 76.3993H176.643Z" fill="#263238"/>
<path d="M180.629 78.3029L179.913 77.2438H179.105V78.3029H178.225V74.4958H179.87C180.887 74.4958 181.524 75.0253 181.524 75.8769C181.535 76.1345 181.465 76.3891 181.324 76.6048C181.182 76.8206 180.977 76.9865 180.736 77.0792L181.595 78.3029H180.629ZM179.799 75.2114H179.083V76.5425H179.799C180.336 76.5425 180.608 76.292 180.608 75.8769C180.608 75.4619 180.336 75.2114 179.799 75.2114Z" fill="#263238"/>
<path d="M183.585 76.8072L183.069 77.3368V78.3029H182.196V74.4958H183.055V76.2705L184.744 74.4958H185.724L184.143 76.1918L185.817 78.3029H184.787L183.585 76.8072Z" fill="#263238"/>
<path d="M207.758 91.0194H206.67L206.406 92.3934H205.633L205.912 91.0194H202.82L202.921 90.4684L206.456 86.8259H207.386L204.001 90.3396H206.098L206.341 89.1302H207.057L206.814 90.3396H207.873L207.758 91.0194Z" fill="#263238"/>
<path d="M210.048 87.52L209.59 89.0443H210.127C211.558 89.0443 212.195 89.6311 212.195 90.5328C212.195 91.6849 211.25 92.4507 209.826 92.4507C209.47 92.4714 209.113 92.4186 208.779 92.2955C208.444 92.1724 208.138 91.9816 207.88 91.735L208.302 91.1196C208.508 91.3262 208.756 91.4871 209.028 91.5919C209.301 91.6967 209.592 91.743 209.883 91.7279C210.842 91.7279 211.401 91.3057 211.401 90.5972C211.401 90.0462 211.007 89.717 209.969 89.717H208.624L209.49 86.8044H212.624L212.496 87.52H210.048Z" fill="#263238"/>
<path d="M213.111 88.6006C213.087 88.3804 213.108 88.1577 213.173 87.9458C213.237 87.7339 213.344 87.5372 213.486 87.3675C213.629 87.1977 213.804 87.0585 214.001 86.958C214.199 86.8576 214.414 86.7981 214.635 86.783C214.792 86.7766 214.947 86.8044 215.092 86.8642C215.237 86.9241 215.367 87.0147 215.473 87.1297C215.579 87.2447 215.659 87.3814 215.707 87.5304C215.755 87.6793 215.77 87.837 215.752 87.9923C215.776 88.2122 215.756 88.4348 215.692 88.6466C215.629 88.8585 215.523 89.0553 215.381 89.2251C215.239 89.395 215.065 89.5344 214.868 89.6349C214.671 89.7354 214.455 89.795 214.234 89.81C214.078 89.8162 213.922 89.7884 213.777 89.7286C213.632 89.6687 213.502 89.5783 213.395 89.4635C213.288 89.3486 213.208 89.212 213.159 89.0631C213.11 88.9142 213.093 88.7564 213.111 88.6006ZM218.049 86.8259H218.686L213.827 92.3934H213.175L218.049 86.8259ZM215.258 88.0353C215.258 87.5057 215.014 87.2338 214.614 87.2338C213.97 87.2338 213.655 87.9494 213.655 88.5577C213.655 89.166 213.898 89.3592 214.299 89.3592C214.936 89.3878 215.258 88.6722 215.258 88.0353ZM216.138 91.2269C216.113 91.0069 216.134 90.7841 216.198 90.5722C216.262 90.3603 216.369 90.1637 216.511 89.9943C216.654 89.8249 216.829 89.6863 217.027 89.587C217.225 89.4876 217.441 89.4296 217.662 89.4164C217.818 89.4099 217.974 89.4376 218.118 89.4976C218.263 89.5575 218.392 89.6482 218.498 89.7634C218.604 89.8786 218.683 90.0154 218.73 90.1644C218.777 90.3133 218.791 90.4708 218.771 90.6258C218.796 90.8453 218.776 91.0675 218.712 91.2789C218.649 91.4904 218.543 91.6867 218.401 91.856C218.259 92.0253 218.084 92.164 217.887 92.2637C217.69 92.3635 217.475 92.4222 217.254 92.4363C217.097 92.445 216.94 92.4189 216.794 92.3599C216.648 92.301 216.516 92.2105 216.409 92.0951C216.302 91.9797 216.221 91.8421 216.173 91.692C216.125 91.542 216.111 91.3832 216.131 91.2269H216.138ZM218.285 90.6616C218.285 90.1392 218.034 89.8601 217.641 89.8601C217.004 89.8601 216.675 90.5757 216.675 91.1912C216.675 91.8066 216.932 91.9926 217.319 91.9926C217.927 91.9926 218.249 91.2699 218.249 90.6616H218.285Z" fill="#263238"/>
<g opacity="0.3">
<path d="M134.672 84.3642L131.259 94.8909H134.672L137.878 84.3642H134.672Z" fill="white"/>
</g>
<g opacity="0.3">
<path d="M143.102 84.3642L139.689 94.8909H143.102L146.308 84.3642H143.102Z" fill="white"/>
</g>
<g opacity="0.3">
<path d="M151.525 84.3642L148.119 94.8909H151.525L154.738 84.3642H151.525Z" fill="white"/>
</g>
<g opacity="0.3">
<path d="M159.955 84.3642L156.549 94.8909H159.955L163.168 84.3642H159.955Z" fill="white"/>
</g>
<g opacity="0.3">
<path d="M168.385 84.3642L164.971 94.8909H168.385L171.598 84.3642H168.385Z" fill="white"/>
</g>
<path d="M40.6471 233.356C40.6471 233.356 58.7737 241.521 77.6517 241.521C95.1271 241.521 113.626 232.726 113.626 232.726L40.6471 233.356Z" fill="#3A3E47"/>
<path d="M79.6196 233.513H72.1342V311.923H79.6196V233.513Z" fill="#3A3E47"/>
<path d="M109.089 307.322H42.6508V311.916H109.089V307.322Z" fill="#3A3E47"/>
<path d="M50.7802 313.426C50.7831 314.431 50.4877 315.413 49.9316 316.25C49.3755 317.086 48.5837 317.739 47.6564 318.125C46.7291 318.511 45.7082 318.613 44.7228 318.418C43.7375 318.223 42.8321 317.74 42.1214 317.031C41.4107 316.321 40.9266 315.416 40.7305 314.431C40.5343 313.446 40.635 312.425 41.0197 311.497C41.4044 310.569 42.0558 309.777 42.8914 309.219C43.727 308.662 44.7092 308.365 45.7136 308.367C47.0556 308.369 48.3421 308.902 49.2916 309.85C50.2412 310.799 50.7764 312.084 50.7802 313.426Z" fill="#263238"/>
<path d="M80.3066 313.426C80.3066 314.43 80.009 315.411 79.4515 316.245C78.894 317.079 78.1016 317.73 77.1745 318.114C76.2474 318.498 75.2272 318.598 74.243 318.402C73.2588 318.207 72.3548 317.723 71.6452 317.014C70.9356 316.304 70.4524 315.4 70.2566 314.416C70.0609 313.432 70.1613 312.412 70.5454 311.485C70.9294 310.557 71.5797 309.765 72.4141 309.208C73.2484 308.65 74.2294 308.353 75.2329 308.353C76.5785 308.353 77.869 308.887 78.8205 309.839C79.772 310.79 80.3066 312.081 80.3066 313.426Z" fill="#263238"/>
<path d="M114.506 313.426C114.506 314.43 114.208 315.411 113.651 316.245C113.093 317.079 112.301 317.73 111.374 318.114C110.447 318.498 109.427 318.598 108.442 318.402C107.458 318.207 106.554 317.723 105.845 317.014C105.135 316.304 104.652 315.4 104.456 314.416C104.26 313.432 104.361 312.412 104.745 311.485C105.129 310.557 105.779 309.765 106.613 309.208C107.448 308.65 108.429 308.353 109.432 308.353C110.778 308.353 112.068 308.887 113.02 309.839C113.971 310.79 114.506 312.081 114.506 313.426Z" fill="#263238"/>
<path d="M77.6445 261.73H67.4613V265.945H77.6445V261.73Z" fill="#3A3E47"/>
<path d="M69.3147 258.782H65.6078V268.893H69.3147V258.782Z" fill="#3A3E47"/>
<path d="M38.8723 114.012H69.2718V223.38H30.5712V122.306C30.575 120.106 31.451 117.998 33.0072 116.443C34.5633 114.888 36.6726 114.014 38.8723 114.012Z" fill="#455A64"/>
<path d="M39.13 221.72C39.0298 221.72 38.9439 197.99 38.9439 168.721C38.9439 139.452 39.0298 115.715 39.13 115.715C39.2302 115.715 39.316 139.445 39.316 168.721C39.316 197.997 39.2158 221.72 39.13 221.72Z" fill="#263238"/>
<path d="M30.5712 223.158H126.328V235.052H36.2603C34.742 235.052 33.2858 234.449 32.2122 233.375C31.1386 232.301 30.5354 230.845 30.5354 229.327V223.13L30.5712 223.158Z" fill="#455A64"/>
<path d="M84.7721 70.7817L80.6215 110.348C79.9059 117.082 80.2565 127.108 90.9478 127.738C100.251 127.587 103.514 119.079 104.165 112.803C104.48 109.819 104.738 107.335 104.795 107.035C104.795 107.035 114.964 107.142 116.739 97.2453C117.597 92.465 118.556 82.4749 119.322 73.4295C119.718 68.742 118.334 64.0772 115.446 60.364C112.558 56.6508 108.377 54.1617 103.736 53.3922L102.777 53.2276C92.3648 52.097 85.595 60.3194 84.7721 70.7817Z" fill="#FFBE9D"/>
<path d="M104.795 107.013C100.217 106.24 95.9575 104.168 92.5222 101.045C92.5222 101.045 94.4615 108.81 104.502 109.568L104.795 107.013Z" fill="#EB996E"/>
<path d="M101.897 75.9199C101.682 76.0988 100.616 75.0683 98.9484 74.8679C97.2811 74.6675 95.9572 75.376 95.7997 75.147C95.721 75.0397 95.9643 74.689 96.5154 74.3598C97.2923 73.934 98.1844 73.7661 99.063 73.8804C99.9326 73.9895 100.745 74.3731 101.382 74.9753C101.875 75.4404 102.004 75.834 101.897 75.9199Z" fill="#263238"/>
<path d="M101.732 79.7484C101.677 80.0983 101.488 80.413 101.205 80.6255C100.921 80.838 100.566 80.9316 100.215 80.8863C100.043 80.8711 99.8759 80.8218 99.7231 80.7414C99.5703 80.6609 99.4351 80.5509 99.3252 80.4178C99.2153 80.2846 99.133 80.1309 99.0831 79.9656C99.0331 79.8003 99.0166 79.6268 99.0343 79.455C99.0909 79.106 99.2805 78.7924 99.5634 78.5802C99.8463 78.368 100.2 78.2738 100.551 78.3172C100.723 78.3324 100.891 78.3817 101.043 78.4621C101.196 78.5425 101.331 78.6525 101.441 78.7857C101.551 78.9189 101.633 79.0726 101.683 79.2379C101.733 79.4032 101.75 79.5767 101.732 79.7484Z" fill="#263238"/>
<path d="M105.01 87.9566C105.854 87.8403 106.71 87.8283 107.557 87.9208C107.951 87.9208 108.337 87.9208 108.445 87.6775C108.542 87.2787 108.517 86.8596 108.373 86.4752L107.722 83.3265C106.82 78.8396 106.241 75.1828 106.427 75.147C106.613 75.1112 107.479 78.7251 108.373 83.1977C108.588 84.3069 108.788 85.3446 108.981 86.3679C109.147 86.8783 109.127 87.4311 108.924 87.928C108.848 88.0538 108.743 88.1605 108.619 88.2398C108.495 88.3192 108.355 88.3692 108.209 88.3859C107.983 88.4154 107.754 88.4154 107.529 88.3859C106.675 88.3466 105.829 88.2024 105.01 87.9566Z" fill="#263238"/>
<path d="M101.768 69.5724C101.568 69.9302 100.258 69.5223 98.6479 69.4579C97.0378 69.3934 95.6924 69.6225 95.5349 69.2503C95.4705 69.0714 95.7496 68.7566 96.3293 68.4775C97.0813 68.1315 97.9078 67.979 98.7338 68.0338C99.5606 68.0773 100.364 68.323 101.074 68.7494C101.611 69.0571 101.854 69.4006 101.768 69.5724Z" fill="#263238"/>
<path d="M117.347 74.1308C117.147 74.4171 115.873 73.9591 114.298 73.7659C112.724 73.5727 111.393 73.6514 111.25 73.3222C111.193 73.1648 111.479 72.9215 112.051 72.7282C112.822 72.5029 113.632 72.4444 114.427 72.5565C115.23 72.6595 116.002 72.9275 116.696 73.3437C117.218 73.68 117.44 73.9949 117.347 74.1308Z" fill="#263238"/>
<path d="M84.357 78.2385C84.1996 78.1312 77.8807 75.0898 76.9718 81.9025C76.063 88.7151 83.0904 88.2214 83.1261 88.0282C83.1619 87.8349 84.357 78.2385 84.357 78.2385Z" fill="#FFBE9D"/>
<path d="M81.3943 85.1728C81.3943 85.1728 81.2584 85.2372 81.0508 85.3016C80.7509 85.3846 80.4305 85.3487 80.1563 85.2015C79.4407 84.8436 79.0185 83.6199 79.1545 82.3891C79.2135 81.8008 79.4042 81.2333 79.7126 80.7288C79.8045 80.5244 79.9452 80.3456 80.1224 80.2083C80.2996 80.0711 80.5079 79.9795 80.7288 79.9417C80.8688 79.9234 81.0108 79.9549 81.1299 80.0308C81.249 80.1067 81.3375 80.2221 81.38 80.3567C81.4516 80.5571 81.38 80.6931 81.423 80.7074C81.4659 80.7217 81.5876 80.6143 81.5661 80.3209C81.5546 80.1482 81.4809 79.9855 81.3586 79.863C81.1889 79.6951 80.9604 79.6001 80.7217 79.5982C80.4345 79.6178 80.157 79.7102 79.9153 79.8667C79.6737 80.0232 79.4759 80.2386 79.3405 80.4927C78.9707 81.0416 78.7421 81.6734 78.675 82.3318C78.539 83.713 79.0686 85.0941 80.0132 85.5092C80.1889 85.5868 80.3799 85.6238 80.5719 85.6176C80.7639 85.6114 80.952 85.5621 81.1224 85.4734C81.3586 85.3374 81.4373 85.1871 81.3943 85.1728Z" fill="#EB996E"/>
<path d="M102.956 92.515C103.049 92.3504 101.747 91.7994 100.916 90.4755C100.577 89.8891 100.315 89.2613 100.136 88.6078C99.9861 88.0925 99.8644 87.7633 99.7857 87.7777C99.707 87.792 99.6998 88.1355 99.7857 88.6865C99.8707 89.4243 100.115 90.1348 100.501 90.7689C100.894 91.4078 101.457 91.9255 102.126 92.2646C102.584 92.5222 102.906 92.5723 102.956 92.515Z" fill="#263238"/>
<path d="M76.2848 66.3234C77.9379 64.0406 78.5319 61.1925 79.5624 58.5733C80.5929 55.9541 82.3461 53.3064 85.0726 52.605L85.1299 52.6408C87.5844 51.9252 90.5042 52.1614 92.286 53.9862C93.0947 50.4725 96.4724 47.9464 100.029 47.3596C103.586 46.7728 109.096 47.8247 112.302 49.5064C114.778 50.7802 117.068 53.1275 119.802 56.5266C120.96 57.9556 121.999 59.4779 122.907 61.078L125.054 70.6744L122.02 75.3188C121.836 75.6436 121.635 75.9589 121.419 76.2634L118.141 86.3464C118.249 83.5269 119.358 73.7802 119.465 70.9535C117.36 70.6958 115.328 70.0153 113.492 68.9528C111.656 67.8903 110.054 66.4678 108.781 64.7705C107.407 62.9314 106.398 60.6915 104.437 59.4893C101.918 57.9364 98.7123 58.5948 95.7997 59.3104L95.9285 59.2102C94.4115 59.75 93.0122 60.576 91.8066 61.6433C91.9183 67.2426 90.8224 72.8002 88.5935 77.9379C88.2571 78.7108 87.3984 80.2851 86.5826 80.5213C84.9939 80.9721 84.722 79.3692 83.8775 78.4532C83.255 77.7805 82.2531 77.6016 81.1439 77.5085C80.596 75.111 80.1898 72.6832 79.9273 70.2379C78.9799 70.4331 78.0001 70.4061 77.0649 70.1592L78.1454 68.1268C77.7542 68.3627 77.3178 68.5139 76.8645 68.5705C76.628 68.6001 76.3882 68.5528 76.1807 68.4355C75.9731 68.3182 75.8089 68.1372 75.7123 67.9193C75.5334 67.3682 75.9413 66.8029 76.2848 66.3234Z" fill="#263238"/>
<path d="M95.3346 55.4174C94.9531 55.6659 94.5897 55.9409 94.2468 56.2404C93.3716 57.1204 92.7403 58.2129 92.4149 59.4106C92.1661 60.2291 92.0007 61.0706 91.9211 61.9224C91.8352 62.8455 91.8209 63.8331 91.7923 64.8779C91.7843 65.9741 91.7078 67.0687 91.5633 68.1554C91.4779 68.7315 91.3512 69.3007 91.184 69.8586C91.039 70.4595 90.7435 71.0136 90.3253 71.4687C90.1358 71.6433 89.9048 71.7665 89.6543 71.8267C89.4038 71.8868 89.1421 71.8818 88.894 71.8122C88.412 71.6772 87.9889 71.385 87.6918 70.9821C87.2225 70.1865 86.9753 69.2795 86.9762 68.3558L87.1765 68.3987C86.798 69.1253 86.3159 69.793 85.7453 70.381C85.2033 70.9239 84.4727 71.2367 83.7058 71.254C83.351 71.2567 83.0022 71.1627 82.6968 70.9821C82.4145 70.8005 82.1928 70.5389 82.0599 70.2307C81.9366 69.9447 81.8922 69.6309 81.9311 69.3219C81.9764 69.0453 82.1154 68.7927 82.3247 68.6063L82.4177 68.7136C81.594 69.5148 80.563 70.0699 79.4407 70.3166C79.362 70.3412 79.2799 70.3533 79.1974 70.3524C79.2715 70.3219 79.3481 70.298 79.4264 70.2808C79.5838 70.2307 79.8128 70.1663 80.0991 70.0518C80.9266 69.7275 81.6809 69.2408 82.3175 68.6206L82.4177 68.7279C82.2348 68.9219 82.1166 69.1679 82.0794 69.432C82.0422 69.696 82.0879 69.9651 82.2102 70.2021C82.332 70.4772 82.534 70.7091 82.7898 70.8676C83.0667 71.032 83.3838 71.1162 83.7058 71.1109C84.4213 71.0828 85.0993 70.7834 85.6022 70.2736C86.1458 69.6956 86.6037 69.0425 86.9619 68.3343L87.1336 68.0266V68.3773C87.1492 69.2626 87.3959 70.1285 87.8492 70.8891C88.1216 71.236 88.4977 71.4867 88.9226 71.6047C89.1367 71.6671 89.3634 71.6729 89.5804 71.6215C89.7974 71.5701 89.9974 71.4632 90.1607 71.3113C90.5462 70.8841 90.8192 70.3676 90.955 69.8085C91.1221 69.2603 91.2489 68.7006 91.3343 68.1339C91.4782 67.0567 91.5571 65.9718 91.5704 64.885C91.5704 63.8402 91.6277 62.8527 91.7207 61.9224C91.8108 61.0575 91.9882 60.2039 92.2503 59.3748C92.5987 58.1599 93.2659 57.0604 94.1824 56.1903C94.5201 55.8695 94.9097 55.6082 95.3346 55.4174Z" fill="#455A64"/>
<path d="M125.297 67.9765L125.212 68.0338L124.947 68.1912C124.805 68.2805 124.657 68.3594 124.503 68.4274C124.317 68.5061 124.11 68.6134 123.866 68.6922C122.471 69.1714 120.979 69.2992 119.522 69.0643C117.356 68.719 115.336 67.7547 113.704 66.2877C111.744 64.4773 110.173 62.2857 109.089 59.8471C108.473 58.5733 107.994 57.278 107.45 56.0758C106.961 54.9056 106.302 53.8134 105.496 52.8341C104.778 51.9441 103.844 51.252 102.784 50.8232C102.305 50.6408 101.8 50.5345 101.289 50.5083C100.808 50.4895 100.326 50.5352 99.8573 50.6443C98.441 50.9851 97.2062 51.8493 96.4008 53.0631C96.1309 53.5142 95.9124 53.9943 95.7496 54.4943C95.7449 54.4611 95.7449 54.4273 95.7496 54.3941C95.7496 54.3082 95.7926 54.2152 95.8212 54.0936C95.9355 53.7091 96.099 53.3411 96.3078 52.9987C96.6408 52.4538 97.0643 51.9698 97.5601 51.5674C98.2171 51.0374 98.9813 50.6565 99.8 50.4511C100.799 50.1935 101.852 50.2459 102.82 50.6013C103.913 51.0391 104.878 51.7455 105.625 52.6552C106.446 53.6479 107.118 54.7543 107.622 55.9398C108.173 57.1564 108.652 58.4445 109.26 59.7112C110.337 62.1187 111.885 64.2866 113.812 66.0873C115.415 67.5411 117.402 68.5047 119.537 68.8639C120.971 69.1121 122.445 69.009 123.83 68.5633C124.804 68.2699 125.283 67.9193 125.297 67.9765Z" fill="#455A64"/>
<path d="M117.068 77.9379C116.853 78.124 115.787 77.0863 114.12 76.8931C112.452 76.6999 111.128 77.394 110.978 77.165C110.899 77.0577 111.135 76.7142 111.694 76.3779C112.472 75.9555 113.363 75.7901 114.241 75.9056C115.111 76.0078 115.925 76.3895 116.56 76.9933C117.046 77.4727 117.175 77.8735 117.068 77.9379Z" fill="#263238"/>
<path d="M115.651 81.0437C115.598 81.3944 115.409 81.7102 115.125 81.923C114.841 82.1359 114.485 82.2287 114.134 82.1815C113.962 82.1664 113.795 82.1171 113.643 82.0365C113.49 81.956 113.356 81.8459 113.246 81.7126C113.137 81.5793 113.055 81.4255 113.006 81.2603C112.957 81.095 112.941 80.9216 112.96 80.7503C113.015 80.4018 113.203 80.0883 113.485 79.876C113.767 79.6637 114.12 79.5692 114.47 79.6125C114.642 79.6277 114.809 79.6769 114.962 79.7574C115.115 79.8378 115.25 79.9478 115.36 80.081C115.47 80.2142 115.552 80.3679 115.602 80.5331C115.652 80.6984 115.669 80.8719 115.651 81.0437Z" fill="#263238"/>
<path d="M122.227 59.8113C122.943 61.0207 124.153 62.18 125.562 62.18C126.079 62.1259 126.591 62.0326 127.094 61.9009C127.552 62.2444 127.265 63.9046 126.879 64.3269C126.521 64.6841 126.134 65.0098 125.72 65.3001C127.265 66.3521 128.804 66.073 130.615 65.6221C130.284 67.0926 129.575 68.451 128.557 69.5621C127.538 70.6732 126.247 71.4983 124.811 71.9553C124.365 72.1377 123.882 72.2114 123.401 72.1703C122.921 72.1293 122.457 71.9746 122.049 71.7192C121.453 71.1067 121.105 70.2967 121.068 69.4435C120.596 66.3654 120.507 63.2405 120.803 60.1405L122.227 59.8113Z" fill="#263238"/>
<path d="M103.743 116.295C103.743 116.295 110.041 118.85 113.626 127.566C116.145 133.692 130.157 153.028 130.157 153.028L167.412 161.3L168.685 173.187L109.096 172.693L100.816 146.322L103.743 116.295Z" fill="#00CCCB"/>
<path d="M78.6535 105.31L72.0412 108.087C65.9227 110.649 58.0938 116.553 55.4675 122.65C49.1629 137.334 43.4523 156.205 41.2625 172.9C39.0512 189.739 43.4523 214.657 43.4523 214.657L99.3707 182.704L96.1003 180.422L106.699 122.771L104.723 115.794L106.04 109.89C106.04 109.89 91.2055 103.936 80.3996 99.6641L78.6535 105.31Z" fill="#00CCCB"/>
<g opacity="0.3">
<path d="M73.315 197.997C73.5202 195.135 73.7253 192.255 73.9304 189.36C73.2746 189.984 72.4162 190.352 71.5117 190.397C72.9106 189.062 74.1519 187.571 75.2114 185.953L72.6638 187.048C73.5623 186.357 74.2957 185.475 74.8107 184.465C73.4438 183.398 71.5188 183.577 69.8013 183.749C60.9635 184.644 52.0469 184.05 43.1732 183.456C42.2844 183.405 41.4174 183.161 40.6328 182.74C40.6328 182.74 40.4539 180.307 40.8474 179.398C41.241 178.489 41.8565 178.754 42.7868 178.418C43.7312 178.131 44.7122 177.981 45.6993 177.974C56.498 177.402 67.3181 178.289 78.0953 179.184C78.7673 179.173 79.4273 179.363 79.9917 179.727C80.8719 180.443 80.7932 181.788 80.6429 182.912C80.0895 186.948 79.5409 190.982 78.997 195.013" fill="black"/>
</g>
<path d="M106.04 120.453C106.04 120.635 106.023 120.817 105.99 120.997L105.761 122.535C105.561 123.866 105.239 125.798 104.817 128.174C103.972 132.933 102.705 139.481 101.238 146.694C99.7714 153.908 98.2829 160.427 97.2167 165.136C96.6799 167.462 96.2434 169.358 95.9285 170.711C95.7783 171.34 95.6566 171.841 95.5636 172.221C95.5303 172.4 95.4775 172.575 95.4061 172.743C95.4248 172.563 95.4535 172.383 95.492 172.206C95.5636 171.82 95.6638 171.312 95.7926 170.682C96.0717 169.315 96.5082 167.419 96.959 165.079L100.838 146.637C102.34 139.424 103.65 132.883 104.559 128.139C104.995 125.798 105.36 123.888 105.618 122.521C105.74 121.891 105.84 121.383 105.911 120.997C105.936 120.811 105.979 120.629 106.04 120.453Z" fill="#263238"/>
<path d="M55.4675 202.298C55.5676 202.174 55.6803 202.062 55.8039 201.962L56.8057 201.038C57.2351 200.638 57.779 200.158 58.4302 199.607C59.0814 199.056 59.797 198.441 60.6414 197.804C62.2945 196.48 64.334 194.999 66.6598 193.446C68.9855 191.893 71.6691 190.319 74.4815 188.801C77.2939 187.284 80.1492 186.025 82.7397 184.959C85.3302 183.892 87.7061 183.069 89.7313 182.454C90.7332 182.118 91.6635 181.874 92.4721 181.645C93.2808 181.416 93.9821 181.237 94.5546 181.101L95.8856 180.801C96.0365 180.753 96.1927 180.724 96.3507 180.715C96.2062 180.783 96.0552 180.835 95.8999 180.872L94.5903 181.244C94.025 181.402 93.3308 181.595 92.5294 181.846C91.7279 182.096 90.8119 182.354 89.81 182.704C87.8063 183.356 85.4447 184.221 82.8685 185.281C80.2923 186.34 77.5085 187.635 74.6604 189.131C71.8122 190.626 69.1859 192.215 66.8458 193.732C64.5058 195.249 62.4663 196.723 60.7989 198.026C59.9473 198.648 59.2174 199.264 58.559 199.779C57.9006 200.294 57.3496 200.767 56.8987 201.146L55.8539 202.012C55.7357 202.121 55.6062 202.217 55.4675 202.298Z" fill="#263238"/>
<path d="M84.1709 181.194C84.221 181.287 78.7823 184.343 72.0054 188.021C65.2285 191.7 59.7326 194.612 59.6825 194.519C59.6324 194.426 65.0711 191.378 71.848 187.692C78.6249 184.007 84.1209 181.109 84.1709 181.194Z" fill="#263238"/>
<g opacity="0.3">
<path d="M64.5201 137.026C67.9908 152.054 78.6034 165.465 92.7297 171.584C82.5673 160.706 73.1431 149.161 64.5201 137.026Z" fill="black"/>
</g>
<g opacity="0.3">
<path d="M105.153 125.605C106.52 131.96 105.504 139.918 102.29 145.549L101.496 143.904C102.62 139.13 104.23 130.665 105.124 125.605" fill="black"/>
</g>
<path d="M134.88 277.245L128.174 297.411C128.174 297.411 146.43 311.007 145.549 314.85L105.976 303.257L115.129 271.398L134.88 277.245Z" fill="#455A64"/>
<g opacity="0.3">
<path d="M134.88 277.245L128.174 297.411C128.174 297.411 146.43 311.007 145.549 314.85L105.976 303.257L115.129 271.398L134.88 277.245Z" fill="black"/>
</g>
<path d="M116.438 292.115C116.024 292.119 115.625 292.276 115.32 292.556C115.015 292.836 114.824 293.22 114.785 293.632C114.773 294.046 114.921 294.449 115.198 294.757C115.475 295.065 115.86 295.254 116.274 295.285C116.713 295.28 117.135 295.112 117.458 294.813C117.78 294.514 117.981 294.106 118.02 293.668C117.987 293.235 117.787 292.832 117.462 292.544C117.138 292.255 116.714 292.104 116.281 292.122" fill="#E0E0E0"/>
<g opacity="0.6">
<path d="M105.976 303.257L107.021 300.08L144.576 312.381C144.576 312.381 146.115 313.662 145.549 314.85L105.976 303.257Z" fill="white"/>
</g>
<path d="M128.876 297.396C128.811 297.59 127.824 297.396 126.686 297.74C125.548 298.083 124.811 298.742 124.653 298.613C124.496 298.484 125.111 297.454 126.493 297.067C127.874 296.681 128.969 297.232 128.876 297.396Z" fill="#263238"/>
<path d="M132.525 300.33C132.525 300.531 131.581 300.617 130.686 301.239C129.792 301.862 129.348 302.671 129.155 302.606C128.961 302.542 129.155 301.418 130.293 300.66C131.43 299.901 132.575 300.144 132.525 300.33Z" fill="#263238"/>
<path d="M133.427 305.991C133.241 305.991 133.255 304.939 134.057 304.023C134.858 303.107 135.896 302.95 135.924 303.136C135.953 303.322 135.209 303.722 134.586 304.481C133.964 305.24 133.627 306.027 133.427 305.991Z" fill="#263238"/>
<path d="M129.892 292.623C129.763 292.781 128.954 292.251 127.838 292.008C126.722 291.764 125.77 291.858 125.691 291.657C125.612 291.457 126.657 291.013 127.967 291.321C129.276 291.629 130.035 292.509 129.892 292.623Z" fill="#263238"/>
<path d="M146.423 286.247L145.585 307.487C145.585 307.487 166.896 315.466 167.118 319.409L125.884 319.266L125.806 286.118L146.423 286.247Z" fill="#455A64"/>
<path d="M132.84 305.655C132.442 305.773 132.102 306.035 131.886 306.389C131.669 306.743 131.591 307.164 131.666 307.572C131.772 307.974 132.027 308.32 132.38 308.538C132.733 308.757 133.157 308.831 133.563 308.746C133.983 308.619 134.34 308.341 134.566 307.966C134.792 307.59 134.871 307.144 134.787 306.714C134.636 306.307 134.333 305.974 133.942 305.786C133.551 305.597 133.102 305.568 132.69 305.705" fill="#E0E0E0"/>
<g opacity="0.6">
<path d="M125.884 319.266L126.006 315.924L165.501 317.305C165.501 317.305 167.333 318.114 167.118 319.409L125.884 319.266Z" fill="white"/>
</g>
<path d="M146.258 307.279C146.258 307.479 145.242 307.565 144.247 308.209C143.252 308.853 142.723 309.698 142.537 309.641C142.351 309.583 142.658 308.395 143.875 307.637C145.091 306.878 146.301 307.093 146.258 307.279Z" fill="#263238"/>
<path d="M150.573 309.082C150.616 309.276 149.743 309.612 149.056 310.464C148.369 311.315 148.169 312.217 147.968 312.203C147.768 312.188 147.646 311.058 148.519 310.013C149.392 308.968 150.573 308.889 150.573 309.082Z" fill="#263238"/>
<path d="M152.999 314.263C152.813 314.306 152.541 313.297 153.056 312.202C153.572 311.108 154.523 310.664 154.609 310.829C154.695 310.993 154.108 311.587 153.693 312.496C153.278 313.405 153.214 314.249 152.999 314.263Z" fill="#263238"/>
<path d="M145.907 302.413C145.821 302.599 144.898 302.32 143.76 302.413C142.623 302.506 141.735 302.842 141.614 302.67C141.492 302.499 142.329 301.783 143.71 301.712C145.091 301.64 146.007 302.255 145.907 302.413Z" fill="#263238"/>
<path d="M97.0234 182.239C97.0234 182.239 146.451 195.12 152.591 203.643C157.772 210.878 130.564 284.751 130.564 284.751L109.096 282.898L118.356 221.083L62.9743 203.479L71.3399 182.211L97.0234 182.239Z" fill="#263238"/>
<path d="M100.566 193.818C100.566 193.818 151.095 206.091 156.205 214.814C158.588 218.886 157.021 232.254 156.133 238.565C155.532 242.816 146.601 302.298 146.601 302.298H124.754L125.233 235.116L72.7354 224.532C72.7354 224.532 44.5544 226.679 43.4523 214.657L55.2171 198.713L82.983 184.994L100.566 193.818Z" fill="#263238"/>
<path d="M96.7157 192.272C96.7157 192.272 96.9662 192.329 97.4313 192.465L99.5782 193.059L107.822 195.364C111.4 196.365 115.78 197.589 120.839 199.092C125.899 200.595 131.631 202.412 137.849 204.767C140.965 205.931 144.18 207.257 147.496 208.746L150.001 209.876C150.845 210.288 151.666 210.745 152.462 211.243C153.277 211.753 154.045 212.333 154.759 212.975C155.502 213.628 156.124 214.405 156.599 215.272C158.302 223.015 157.271 231.481 156.005 240.133C155.454 244.491 154.745 248.935 154.08 253.479C153.414 258.023 152.706 262.675 151.997 267.398C150.566 276.851 149.135 286.641 147.618 296.659C147.331 298.556 147.052 300.445 146.766 302.32V302.484H124.582V302.298C124.775 276.837 124.954 253.779 125.097 235.123L125.212 235.259L87.8778 227.667L77.6946 225.577L75.0468 225.026C74.4457 224.897 74.1451 224.818 74.1451 224.818L75.054 224.983L77.7161 225.498L87.9422 227.502L125.262 234.959H125.376V235.08C125.255 253.737 125.104 276.794 124.94 302.263L124.754 302.077H146.594L146.415 302.234C146.694 300.352 146.981 298.47 147.26 296.573L151.647 267.312C152.362 262.579 153.059 257.94 153.736 253.393C154.409 248.849 155.124 244.405 155.683 240.047C155.978 237.871 156.267 235.724 156.549 233.606C156.85 231.521 157.036 229.421 157.107 227.316C157.178 225.241 157.178 223.196 157.107 221.183C157.064 220.174 157.007 219.179 156.921 218.192C156.912 217.223 156.715 216.266 156.341 215.372C155.886 214.537 155.288 213.789 154.573 213.161C153.875 212.531 153.123 211.964 152.326 211.465C151.542 210.966 150.729 210.512 149.893 210.105L147.403 208.968C144.097 207.486 140.884 206.148 137.778 204.982C131.573 202.613 125.841 200.802 120.796 199.257C115.751 197.711 111.372 196.494 107.801 195.471L99.571 193.152L97.4242 192.523C96.959 192.358 96.7157 192.272 96.7157 192.272Z" fill="#455A64"/>
<path d="M166.696 161.887C167.018 161.4 171.19 156.584 172.314 156.584C173.437 156.584 174.725 157.872 174.725 157.872C175.477 157.528 176.314 157.415 177.13 157.55C178.096 157.872 182.59 161.722 182.59 163.168V165.58C182.692 166.217 182.692 166.867 182.59 167.505C182.432 168.628 179.727 170.553 179.727 170.553H164.291C164.291 170.553 161.35 168.571 161.715 166.703C162.08 164.835 166.696 161.887 166.696 161.887Z" fill="#FFBE9D"/>
<path d="M174.725 157.872C175.06 158.025 175.381 158.207 175.684 158.416L178.232 160.026C178.526 160.197 178.808 160.389 179.076 160.599C179.36 160.862 179.574 161.191 179.699 161.558C179.796 161.946 179.842 162.346 179.835 162.746L179.899 163.977C179.985 165.658 180.071 167.505 180.164 169.437L180.207 170.31V170.467L180.057 170.503L179.112 170.732H179.069C178.627 170.719 178.202 170.56 177.86 170.281C177.544 170.019 177.28 169.702 177.08 169.344C176.717 168.692 176.445 167.994 176.271 167.268C175.971 166.056 175.793 164.817 175.741 163.569L175.827 163.683L173.129 162.624C172.795 162.507 172.472 162.361 172.163 162.188C172.51 162.258 172.85 162.359 173.179 162.488L175.913 163.44H175.992V163.526C176.075 164.754 176.274 165.971 176.586 167.161C176.761 167.852 177.028 168.516 177.38 169.136C177.534 169.463 177.77 169.745 178.064 169.954C178.359 170.163 178.703 170.293 179.062 170.331H179.019L179.964 170.095L179.82 170.288L179.777 169.408C179.699 167.476 179.613 165.637 179.541 163.948C179.541 163.526 179.541 163.118 179.498 162.717C179.506 162.344 179.47 161.972 179.391 161.608C179.292 161.288 179.112 161 178.869 160.771C178.614 160.565 178.349 160.374 178.074 160.198L175.591 158.495C175.285 158.312 174.996 158.104 174.725 157.872Z" fill="#EB996E"/>
<path d="M164.291 170.002C164.631 169.929 164.975 169.884 165.322 169.866L168.134 169.644H168.177C169.223 169.89 170.282 170.081 171.347 170.217C171.962 170.301 172.581 170.351 173.201 170.367C173.502 170.417 173.81 170.399 174.104 170.314C174.397 170.23 174.668 170.082 174.897 169.88C175.089 169.607 175.182 169.276 175.162 168.943C175.162 168.592 175.112 168.227 175.097 167.855C175.056 167.552 174.909 167.273 174.682 167.068C174.456 166.841 174.198 166.648 173.917 166.496C172.895 165.981 171.746 165.777 170.61 165.909C170.203 165.947 169.793 165.888 169.414 165.736C169.034 165.584 168.696 165.344 168.428 165.036C168.091 164.556 168.12 164.206 168.142 164.213C168.236 164.471 168.371 164.713 168.542 164.928C168.81 165.196 169.136 165.4 169.494 165.524C169.852 165.648 170.234 165.689 170.61 165.644C171.796 165.468 173.006 165.658 174.081 166.188C174.393 166.354 174.68 166.563 174.933 166.81C175.23 167.08 175.419 167.449 175.462 167.848C175.462 168.177 175.534 168.564 175.534 168.936C175.553 169.356 175.43 169.769 175.183 170.109C174.934 170.398 174.593 170.593 174.217 170.661C173.88 170.724 173.536 170.745 173.194 170.725C172.535 170.725 171.906 170.639 171.305 170.56C170.227 170.405 169.159 170.188 168.106 169.909H168.149L165.336 170.009C164.989 170.044 164.639 170.041 164.291 170.002Z" fill="#EB996E"/>
<path d="M179.999 169.938C180.357 168.981 180.773 168.046 181.244 167.14C181.607 166.178 182.088 165.264 182.676 164.42C182.429 165.414 182.067 166.374 181.595 167.283C181.23 168.258 180.689 169.158 179.999 169.938Z" fill="#EB996E"/>
<path d="M146.558 173.194L202.155 173.909L220.045 123.716C220.236 123.214 220.228 122.657 220.022 122.161C219.815 121.664 219.427 121.266 218.936 121.047C218.672 120.924 218.385 120.858 218.094 120.852C217.802 120.846 217.513 120.9 217.244 121.012C216.975 121.124 216.732 121.29 216.53 121.5C216.329 121.711 216.173 121.961 216.074 122.235L198.434 169.766L146.508 170.281C146.129 170.281 145.765 170.432 145.496 170.7C145.228 170.969 145.077 171.333 145.077 171.712C145.07 171.909 145.104 172.105 145.176 172.288C145.248 172.47 145.356 172.637 145.495 172.775C145.634 172.914 145.801 173.023 145.983 173.095C146.166 173.167 146.362 173.201 146.558 173.194Z" fill="#263238"/>
<path d="M63.7114 135.903C63.7114 135.903 90.9049 172.872 95.1199 172.872H134.801V157.844L104.795 150.766C104.795 150.766 90.0247 120.209 86.7472 116.295C83.4696 112.381 74.7319 107.107 68.1984 113.003C61.6648 118.9 63.7114 135.903 63.7114 135.903Z" fill="#00CCCB"/>
<path d="M134.772 159.325L141.277 158.803C141.277 158.803 141.413 156.391 142.837 155.54C144.261 154.688 144.111 152.842 144.984 152.985C145.457 153.078 145.943 153.078 146.415 152.985L151.804 148.448L156.348 145.471L159.926 144.755C159.926 144.755 162.073 145.32 159.926 147.303L157.651 148.584L155.668 150.573L160.205 148.34C160.414 148.24 160.643 148.187 160.874 148.187C161.106 148.187 161.335 148.24 161.544 148.34C162.771 148.871 163.941 149.525 165.036 150.294C165.134 150.386 165.212 150.497 165.265 150.62C165.318 150.743 165.346 150.875 165.346 151.01C165.346 151.144 165.318 151.277 165.265 151.4C165.212 151.523 165.134 151.634 165.036 151.725L167.018 153.428C167.018 153.428 167.447 155.704 165.172 155.132L163.333 154.709L160.871 157.1C160.871 157.1 169.108 155.396 169.673 155.668C170.238 155.94 170.954 157.228 169.673 158.359C168.392 159.49 163.426 159.211 162.295 160.348C161.164 161.486 153.65 168.342 151.804 168.764C149.958 169.186 134.815 172.886 134.815 172.886L134.772 159.325Z" fill="#FFBE9D"/>
<path d="M166.961 153.407C166.572 153.17 166.199 152.907 165.844 152.62C165.508 152.369 165.129 152.076 164.642 151.761C164.413 151.604 164.175 151.446 163.927 151.289C163.704 151.124 163.443 151.018 163.168 150.981C162.604 151.103 162.068 151.329 161.586 151.647C161.1 151.911 160.67 152.162 160.305 152.362C159.931 152.626 159.527 152.847 159.103 153.021C159.404 152.674 159.759 152.379 160.155 152.147C160.506 151.904 160.928 151.625 161.415 151.339C161.658 151.196 161.916 151.053 162.188 150.909C162.483 150.738 162.813 150.636 163.154 150.609C163.253 150.589 163.355 150.589 163.454 150.609C163.538 150.637 163.619 150.67 163.698 150.709C163.843 150.779 163.984 150.858 164.12 150.945C164.385 151.11 164.628 151.274 164.835 151.446C165.286 151.775 165.68 152.097 166.002 152.376C166.653 152.963 167.004 153.371 166.961 153.407Z" fill="#EB996E"/>
<path d="M147.031 152.434C147.088 152.52 146.415 153.106 145.6 153.865C144.784 154.624 144.168 155.253 144.09 155.175C144.391 154.565 144.818 154.026 145.342 153.593C145.801 153.074 146.381 152.676 147.031 152.434Z" fill="#EB996E"/>
<path d="M86.7472 116.295C87.3306 117.014 87.857 117.777 88.3215 118.578C89.259 120.131 90.5829 122.449 92.1715 125.448C95.3703 131.445 99.7714 140.139 104.931 150.723L104.831 150.638L134.844 157.694H134.987V173.115H133.005H99.2776H95.4419C95.2751 173.125 95.1078 173.125 94.941 173.115C94.7722 173.082 94.6086 173.027 94.4544 172.95C94.1545 172.793 93.8695 172.608 93.6028 172.399C93.104 172.028 92.6262 171.629 92.1715 171.204C90.4334 169.568 88.7828 167.841 87.2266 166.03C84.1781 162.567 81.5017 159.225 79.0328 156.162C74.1523 150.022 70.338 144.948 67.7189 141.442L64.7204 137.377C64.3913 136.912 64.1408 136.561 63.9547 136.311C63.7687 136.06 63.7043 135.939 63.7043 135.939C63.7043 135.939 63.8045 136.053 63.9905 136.289L64.7849 137.334L67.8405 141.342C70.4955 144.827 74.3455 149.872 79.2475 155.99C81.7021 159.039 84.4142 162.367 87.4628 165.823C89.0191 167.617 90.6672 169.33 92.4005 170.954C92.8547 171.37 93.3326 171.76 93.8318 172.12C94.076 172.297 94.3345 172.452 94.6046 172.586C94.8693 172.713 95.1639 172.765 95.4562 172.736H99.2919H133.019H134.815L134.629 172.922C134.629 167.769 134.629 162.731 134.629 157.894L134.765 158.073L104.759 150.931H104.688L104.652 150.867C99.5281 140.268 95.1628 131.545 92.0141 125.541C90.4469 122.528 89.1516 120.202 88.2356 118.635C87.7705 117.862 87.4198 117.261 87.1407 116.889C86.8617 116.517 86.7472 116.295 86.7472 116.295Z" fill="#263238"/>
<path d="M82.7969 113.876C82.7969 113.941 81.8666 113.569 80.3495 113.225C79.4582 113.027 78.5544 112.891 77.6445 112.817C76.5322 112.732 75.4149 112.732 74.3026 112.817C73.1934 112.934 72.0952 113.137 71.0179 113.425C70.137 113.666 69.2738 113.967 68.4345 114.327C67.0033 114.95 66.1875 115.479 66.1517 115.422C66.3131 115.259 66.4961 115.12 66.6956 115.007C67.217 114.663 67.7623 114.357 68.3272 114.091C69.1649 113.688 70.0336 113.353 70.9249 113.089C72.0174 112.776 73.1359 112.563 74.2668 112.452C75.3999 112.348 76.5401 112.348 77.6731 112.452C78.598 112.547 79.5142 112.712 80.414 112.946C81.0168 113.104 81.6076 113.304 82.1815 113.547C82.5894 113.719 82.8113 113.848 82.7969 113.876Z" fill="#263238"/>
<path d="M99.3277 157.629C99.7708 156.345 100.459 155.159 101.353 154.137C102.148 153.034 103.153 152.098 104.308 151.382C104.38 151.468 103.006 152.641 101.639 154.366C100.272 156.091 99.4351 157.679 99.3277 157.629Z" fill="#263238"/>
<path d="M98.4189 153.021C99.9397 151.674 101.921 150.964 103.951 151.038C103.951 151.153 102.641 151.289 101.088 151.847C99.5353 152.405 98.4833 153.114 98.4189 153.021Z" fill="#263238"/>
<path d="M123.916 230.193C123.344 228.998 121.956 228.475 120.689 228.046C95.6924 219.988 68.871 216.124 43.0301 220.818C39.9243 221.383 36.7183 222.121 34.2494 224.096C31.7806 226.071 30.2992 229.649 31.616 232.511L36.9187 234.214C63.3786 231.269 90.0937 231.456 116.51 234.773C118.292 235.002 120.167 235.224 121.812 234.522C123.458 233.821 124.696 231.796 123.916 230.193Z" fill="#455A64"/>
<path d="M94.9124 221.927C94.8556 221.938 94.7974 221.938 94.7406 221.927L94.2612 221.863L92.4077 221.591C90.8047 221.333 88.479 220.961 85.5879 220.632C78.0702 219.743 70.4995 219.382 62.9314 219.552C60.7202 219.594 58.559 219.702 56.4909 219.874C54.4227 220.045 52.4047 220.145 50.4797 220.317C50.2415 220.337 50.0022 220.337 49.764 220.317C49.5403 220.296 49.3151 220.296 49.0914 220.317C48.6383 220.348 48.1885 220.415 47.746 220.518L45.1555 221.061C43.4881 221.434 41.9567 221.841 40.5755 222.299C38.3938 222.979 36.3104 223.942 34.3783 225.162C33.6626 225.598 33.1903 225.978 32.854 226.243L32.4676 226.536C32.3817 226.6 32.3316 226.636 32.3244 226.629L32.4389 226.507L32.8039 226.185C33.2799 225.775 33.7793 225.393 34.2995 225.04C36.2166 223.755 38.3021 222.741 40.4968 222.028C42.0032 221.521 43.5342 221.091 45.0839 220.739L47.6816 220.181C48.1508 220.063 48.63 219.989 49.1128 219.959C49.3509 219.939 49.5904 219.939 49.8285 219.959C50.0662 219.987 50.3063 219.987 50.5441 219.959C52.4405 219.78 54.4728 219.659 56.5553 219.494C58.6377 219.33 60.849 219.208 62.9958 219.165C70.5573 218.993 78.1211 219.387 85.6237 220.346C88.4861 220.711 90.8333 221.126 92.4292 221.426L94.2755 221.77L94.7478 221.87L94.9124 221.927Z" fill="#263238"/>
<path d="M32.2672 181.194L74.8751 182.683C75.0235 182.688 75.1691 182.725 75.3025 182.79C75.4358 182.856 75.5539 182.949 75.649 183.063C75.7442 183.177 75.8143 183.31 75.8548 183.453C75.8953 183.595 75.9053 183.745 75.8841 183.892L69.7512 234.987H79.3548L84.3069 178.74C84.3627 178.286 84.3236 177.826 84.192 177.388C84.0605 176.95 83.8393 176.544 83.5425 176.196C83.2458 175.848 82.8799 175.566 82.4683 175.367C82.0566 175.168 81.608 175.056 81.151 175.04L31.1222 173.251L32.2672 181.194Z" fill="#455A64"/>
<path d="M258.71 177.473H252.033V178.955L266.732 319.452H273.588L258.71 177.473Z" fill="#455A64"/>
<path d="M109.647 177.473H116.324V178.983L102.62 319.409H95.7639L109.647 177.473Z" fill="#455A64"/>
<path d="M109.647 177.473C109.647 177.473 109.647 177.724 109.59 178.189C109.532 178.654 109.475 179.398 109.389 180.336C109.21 182.218 108.953 184.994 108.616 188.558C107.901 195.714 106.935 206.041 105.711 218.85C103.221 244.441 99.7786 279.9 95.9428 319.402L95.7639 319.194H102.62L102.433 319.366C108.931 253.4 114.434 197.518 116.266 178.955C116.266 178.239 116.266 177.838 116.266 177.445L116.316 177.495H111.307H110.076H109.668H110.062H111.279L116.345 177.459H116.395V177.516C116.395 177.91 116.395 178.325 116.395 179.026C114.599 197.589 109.196 253.45 102.798 319.459V319.631H95.5707V319.423C99.4637 279.878 102.963 244.376 105.489 218.757C106.77 205.969 107.793 195.65 108.509 188.515C108.867 184.937 109.146 182.218 109.332 180.336C109.432 179.413 109.504 178.704 109.554 178.189C109.604 177.674 109.647 177.473 109.647 177.473Z" fill="#263238"/>
<path d="M284.666 172.9H93.5813V178.947H284.666V172.9Z" fill="#455A64"/>
<path d="M264.321 178.955C264.321 179.055 226.235 179.141 179.269 179.141C132.303 179.141 94.2039 179.055 94.2039 178.955C94.2039 178.854 132.282 178.768 179.269 178.768C226.257 178.768 264.321 178.84 264.321 178.955Z" fill="#263238"/>
</svg>
